<svg width="251" height="411" viewBox="0 0 153 251" fill="none" xmlns="http://www.w3.org/2000/svg">
<g id="1 23" clip-path="url(#clip0_109_660)">
<g id="Group">
<path id="Vector" d="M40.7794 209.194C39.648 209.173 38.7263 210.065 38.7073 211.192L38.0642 246.74L28.0468 246.557C26.9203 246.54 25.9938 247.432 25.9724 248.557C25.9509 249.682 26.8464 250.608 27.973 250.631L40.0267 250.845C40.1744 250.845 40.3102 250.838 40.4507 250.807C41.3748 250.634 42.0845 249.832 42.1012 248.85L42.78 211.269C42.7966 210.136 41.9035 209.216 40.7794 209.194Z" fill="black"/>
<path id="Vector_2" d="M88.187 246.928L78.7031 246.759L77.5908 213.58C77.5503 212.451 76.6096 211.571 75.483 211.613C74.366 211.637 73.48 212.591 73.5134 213.716L74.6947 248.828C74.7352 249.913 75.6116 250.776 76.6953 250.798L88.1131 251.002C88.2608 251.002 88.3989 250.993 88.5347 250.964C89.4612 250.788 90.1662 249.984 90.1852 249.002C90.2067 247.877 89.3111 246.949 88.187 246.928Z" fill="black"/>
<path id="Vector_3" d="M51.959 48.6487C58.1228 42.3479 65.1679 37.165 73.7705 33.3902C88.7847 26.8016 105.569 26.0999 120.502 33.3522C157.127 51.12 161.612 84.3509 139.898 101.07C118.182 117.789 89.1182 111.117 89.1182 111.117C89.1182 111.117 86.6103 132.091 86.5983 132.193C86.4578 133.378 89.9589 136.306 90.7592 137.274C93.229 140.259 95.6964 143.263 98.0067 146.381C102.472 152.392 106.481 158.843 108.903 165.964C112.868 177.636 111.673 190.742 103.611 200.396C95.6273 209.956 81.9159 213.283 70.0432 214.437C58.2824 215.576 45.507 214.665 35.1299 208.526C24.7315 202.37 16.991 191.959 12.8778 180.733C2.84847 153.398 9.8054 122.208 21.328 96.5172C26.7678 84.3794 33.5199 72.841 41.1223 61.933C44.4924 57.1045 48.0459 52.6518 51.959 48.6487Z" fill="#F18E1D"/>
<path id="Vector_4" d="M27.2584 84.2201C26.4439 83.8443 10.1079 76.045 10.1936 57.7324C15.3452 55.8343 17.7126 52.9706 17.8126 52.835C18.5081 51.9525 18.3652 50.6943 17.4935 49.9926C16.6194 49.2957 15.3452 49.4289 14.6378 50.2899C14.614 50.3089 13.3231 51.8122 10.5461 53.1656C10.82 51.2723 11.2439 49.2838 11.8846 47.193C12.2204 46.1203 11.6131 44.9762 10.5389 44.6503C9.46719 44.3364 8.31921 44.9239 7.99292 46.0014C7.2927 48.2848 6.83065 50.4493 6.52818 52.5329C5.30637 51.2461 4.0917 49.2719 4.07027 46.4366C4.06074 45.3163 3.14379 44.4125 2.02201 44.4196C0.885944 44.4101 -0.00957354 45.3473 -4.67618e-05 46.4676C0.0452054 52.7375 4.07741 56.1317 6.14472 57.4589C5.96371 78.5662 25.3221 87.8093 25.5508 87.9116C25.9557 88.0995 26.3867 88.14 26.7892 88.0615C27.4156 87.9425 27.9729 87.5382 28.2587 86.9174C28.7232 85.8993 28.2778 84.6887 27.2584 84.2201Z" fill="#E39423"/>
<path id="Vector_5" d="M134.213 121.152C134.194 121.159 133.272 121.435 131.693 121.544C132.265 121.183 132.837 120.826 133.411 120.434C134.342 119.794 134.573 118.533 133.942 117.608C133.303 116.676 132.036 116.438 131.11 117.075C129.671 118.065 128.228 118.911 126.789 119.673L126.873 115.089C126.894 113.964 125.999 113.041 124.872 113.015C123.743 113.003 122.819 113.888 122.798 115.015L122.679 121.585C104.895 128.775 88.7443 121.397 88.5561 121.309C87.5415 120.829 86.3221 121.261 85.8434 122.272C85.3599 123.288 85.7934 124.501 86.8032 124.981C87.5082 125.314 99.8454 131.018 115.286 128.062C118.43 127.462 121.705 126.485 125.039 125.046C129.278 125.952 132.52 125.645 134.208 125.322C135.013 125.167 135.466 125.012 135.523 124.996C136.581 124.634 137.143 123.485 136.785 122.42C136.423 121.38 135.268 120.826 134.213 121.152Z" fill="#E39423"/>
<path id="Vector_6" d="M80.1678 30.9808C80.1678 30.9808 85.4242 4.37893 59.247 0.880066C59.247 0.880066 52.1615 23.1315 80.1678 30.9808Z" fill="#7FBF34"/>
<path id="Vector_7" d="M68.1593 36.1708C68.1593 36.1708 57.9085 15.7865 40.7865 15.4107C40.7865 15.4107 39.0431 32.9526 63.9127 38.7396" fill="#7FBF34"/>
<path id="Vector_8" d="M144.097 83.076C144.111 83.0498 144.14 83.0451 144.15 83.0189C145.888 82.919 147.627 82.7739 149.358 82.567C149.761 82.6835 150.104 82.9143 150.282 83.3567C150.506 83.8871 150.449 84.4841 150.342 85.0502C150.161 86.0159 150.082 86.9959 149.594 87.8688C149.158 88.6466 148.861 89.5528 148.301 90.2497C148.015 90.6018 147.613 90.8824 147.158 90.9181C146.71 90.9467 146.272 90.7326 145.9 90.4733C143.778 89.0105 143.43 86.2775 143.847 83.9085C143.892 83.6183 143.954 83.3305 144.097 83.076Z" fill="white"/>
<path id="Vector_9" d="M135.635 83.1022C138.169 83.1949 140.703 83.1807 143.24 83.0594C143.261 83.1069 143.29 83.1426 143.302 83.1949C143.416 83.6588 143.164 84.2748 143.061 84.7244C142.928 85.3023 142.783 85.8827 142.678 86.4702C142.513 87.3717 142.501 88.2755 142.392 89.1818C142.261 90.2117 141.818 91.3153 140.725 91.6293C140.31 91.7482 139.87 91.7554 139.439 91.7578C138.379 91.7601 137.255 91.684 136.531 90.804C135.752 89.862 135.618 88.492 135.523 87.3075C135.468 86.5772 135.435 85.8351 135.478 85.1097C135.516 84.4794 135.373 83.7254 135.621 83.1283C135.626 83.1117 135.628 83.1046 135.635 83.1022Z" fill="white"/>
<path id="Vector_10" d="M134.52 83.0522C134.668 84.5174 134.494 85.9422 134.156 87.3859C134.001 88.0424 133.846 88.8892 133.522 89.5932C133.461 89.7455 133.38 89.8739 133.299 90.0143C133.277 90.0476 133.246 90.0785 133.225 90.1118C133.084 90.3235 132.96 90.5447 132.777 90.7064C132.032 91.3653 131.069 91.4604 130.131 91.2654C129.283 91.0917 128.345 90.7302 127.845 89.9928C127.366 89.2959 127.316 88.335 127.19 87.5287C127.044 86.5939 126.925 85.6591 126.816 84.7172C126.742 84.0488 126.477 83.0308 126.859 82.391C129.412 82.7097 131.967 82.9309 134.52 83.0522Z" fill="white"/>
<path id="Vector_11" d="M119.151 81.6346C119.642 81.6631 120.145 81.7036 120.638 81.7321C120.688 81.7369 120.735 81.7488 120.785 81.7511C121.559 81.8272 122.338 81.8463 123.119 81.8629C123.772 81.9676 124.432 82.0651 125.084 82.1602C125.468 82.4195 125.553 82.9285 125.563 83.3662C125.589 84.8908 125.377 86.4512 125.277 87.9758C125.229 88.706 125.132 89.3887 124.617 89.931C124.122 90.4519 123.507 90.7421 122.786 90.8016C122.043 90.8634 121.295 90.7088 120.568 90.5447C119.416 90.283 118.78 89.3435 118.556 88.2375C118.442 87.6428 118.42 87.0315 118.365 86.4274C118.299 85.6425 118.165 84.8647 118.08 84.0821C118.006 83.3995 117.803 82.4813 118.356 81.9438C118.582 81.7392 118.858 81.6655 119.151 81.6346Z" fill="white"/>
<path id="Vector_12" d="M109.62 80.5547C110.687 80.7379 111.756 80.8901 112.826 81.0281C112.885 81.0447 112.947 81.0661 113.011 81.078C113.895 81.2968 114.786 81.3706 115.684 81.3515C116.007 81.3848 116.327 81.4229 116.643 81.4538C117.148 81.6869 117.203 82.4171 117.165 82.9713C117.072 84.1035 116.91 85.2262 116.622 86.3299C116.317 87.4787 115.734 88.6537 114.759 89.3863C113.19 90.5756 110.911 90.1784 109.92 88.4515C109.598 87.8807 109.413 87.2456 109.286 86.6058C109.015 85.2952 108.97 83.9394 109.01 82.6003C109.02 82.253 109.032 81.7868 109.124 81.3777C109.208 81.0281 109.36 80.7331 109.62 80.5547Z" fill="white"/>
<path id="Vector_13" d="M101.472 78.6638C101.775 78.7494 102.084 78.8398 102.384 78.9254C104.34 79.4748 106.307 79.9125 108.272 80.2883C108.322 80.4096 108.36 80.5309 108.374 80.6594C108.424 81.1113 108.307 81.5751 108.186 82.0199C107.683 83.899 107.19 85.7852 106.609 87.6428C106.316 88.5871 105.847 89.4838 104.971 90.0166C104.197 90.4923 103.187 90.5542 102.315 90.3139C100.429 89.7954 99.45 87.8735 99.338 86.0397C99.2094 83.8157 100.322 81.7678 100.786 79.6509C100.874 79.218 101.122 78.8564 101.472 78.6638Z" fill="white"/>
<path id="Vector_14" d="M91.6094 78.3665C92 77.6006 92.3478 76.8204 92.6526 76.0141C92.6622 75.9926 92.6788 75.9784 92.6931 75.9594C95.1296 76.7752 97.5375 77.5173 99.8858 78.2071C99.993 78.4212 100.036 78.6757 99.9573 78.9254C99.9311 79.011 99.8811 79.0848 99.8382 79.1538C99.8192 79.2965 99.781 79.432 99.7096 79.5605C98.4521 81.9438 97.3612 85.1121 94.3341 85.7043C93.0766 85.9517 91.7333 85.5925 90.8163 84.6815C89.6731 83.5422 89.7732 81.9652 90.4067 80.5928C90.7592 79.8245 91.2236 79.1157 91.6094 78.3665Z" fill="white"/>
<path id="Vector_15" d="M83.576 74.4918C83.7761 73.9923 84.0452 73.4095 84.3906 72.9029C86.9175 73.9328 89.4707 74.8652 91.9953 75.7215C91.8762 76.221 91.5857 76.7443 91.3999 77.1605C90.9307 78.2332 90.4091 79.2965 89.6422 80.1956C89.0372 80.9068 88.206 81.2849 87.2676 81.2588C86.515 81.2421 85.6719 81.059 84.9669 80.7854C83.5546 80.2479 82.9472 79.0753 82.9568 77.6077C82.9592 77.1439 83.002 76.6824 83.0806 76.2257C83.1854 75.6335 83.3545 75.0531 83.576 74.4918Z" fill="white"/>
<path id="Vector_16" d="M73.8015 71.9705C74.4803 70.9311 75.2972 70.001 76.1332 69.0924C78.6554 70.4078 81.261 71.6113 83.9046 72.7055C83.4759 73.6046 83.0829 74.5251 82.559 75.3718C81.8254 76.5683 80.8013 77.4983 79.4747 77.9859C78.079 78.4996 76.5404 78.4878 75.0971 78.1833C74.0516 77.9621 72.8822 77.5982 72.5678 76.4493C72.2915 75.4384 72.5416 74.3919 72.9774 73.4309C73.2204 72.9124 73.5085 72.4177 73.8015 71.9705Z" fill="white"/>
<path id="Vector_17" d="M66.2015 66.7472C66.6326 65.9313 67.159 65.1559 67.7329 64.459C67.8139 64.3591 67.9211 64.2497 68.0092 64.1426C70.2718 65.7648 72.6726 67.2467 75.1757 68.5953C74.6756 69.7275 74.054 70.7812 72.9631 71.4829C71.739 72.2678 70.198 72.3296 68.8214 71.9729C67.6043 71.6565 66.0515 71.0095 65.6109 69.7204C65.3655 69.0044 65.5251 68.2124 65.83 67.5202C65.9419 67.2586 66.0681 67.0017 66.2015 66.7472Z" fill="white"/>
<path id="Vector_18" d="M54.7646 177.914C55.2195 175.585 56.8581 173.549 58.5968 171.968C59.066 171.544 59.5899 171.185 60.052 170.75C60.1663 170.645 58.5682 169.461 58.461 169.368C57.8132 168.802 57.2297 168.136 56.9367 167.318C56.4937 166.074 56.8152 164.627 57.5941 163.55C58.0561 162.908 58.6682 162.394 59.347 161.997C59.7757 161.74 60.9308 161.538 61.2047 161.15C61.4214 160.838 61.0118 160.382 60.8213 160.039C59.8805 158.391 58.8087 156.792 58.2919 154.944C57.5869 152.394 57.5417 148.403 60.5783 147.423C61.6501 147.081 62.8076 147.154 63.927 147.278C66.5492 147.556 69.2144 148.101 71.4389 149.521C71.627 149.645 72.3034 145.392 72.3701 145.066C72.7845 143.163 74.0468 139.236 76.7548 140.252C78.391 140.861 78.7626 143.696 79.0245 145.166C79.4199 147.369 79.4937 149.604 79.8034 151.809C79.7391 151.345 85.0336 150.135 85.5837 150.08C87.3986 149.911 89.3968 150.408 90.4995 151.857C91.538 153.215 91.5618 155.142 90.9926 156.754C90.4281 158.369 89.3444 159.747 88.2798 161.086C87.5343 162.037 86.777 162.986 86.0339 163.933C87.9821 164.368 89.9518 165.136 91.2998 166.621C92.6431 168.098 93.2123 170.414 92.2191 172.151C91.7047 173.055 90.852 173.683 89.9541 174.165C89.4087 174.465 89.03 174.413 89.2039 174.998C89.3158 175.381 89.916 175.754 90.1304 176.118C91.1664 177.833 91.5451 180.426 90.7377 182.298C89.4659 185.266 86.5626 185.345 83.7975 184.543C83.726 186.534 83.7355 189.169 82.3065 190.73C81.2324 191.898 79.4794 192.295 77.9194 191.988C76.9167 191.793 75.9807 191.343 75.1376 190.772C74.8709 190.58 74.2278 189.845 73.9373 189.812C73.5776 189.769 73.2275 190.444 72.9727 190.725C71.6985 192.154 70.1051 193.372 68.2236 193.829C67.0232 194.117 65.7109 194.057 64.6201 193.482C62.9695 192.635 62.0431 190.758 61.843 188.912C61.6382 187.071 62.0407 185.209 62.4408 183.404C61.4334 183.604 60.4283 183.732 59.3994 183.77C58.3419 183.818 57.244 183.68 56.358 183.047C55.3648 182.338 54.8242 181.12 54.686 179.91C54.6003 179.222 54.636 178.556 54.7646 177.914Z" fill="#DAE24A"/>
<path id="Vector_19" d="M98.4044 3.67698e-06C114.409 0.0975247 116.088 19.7896 103.613 24.1115L103.699 24.1139L103.644 33.4354L95.0343 33.3902L95.0843 24.6538C80.3345 21.8209 81.4991 -0.0951388 98.4044 3.67698e-06Z" fill="#F18E1D"/>
<path id="Vector_20" d="M115.536 29.292C106.836 21.4189 110.291 3.47745 125.806 3.56308C145.593 3.67725 145.455 33.0334 125.63 32.9193C124.722 32.9145 123.874 32.8265 123.053 32.7076L120.48 37.988L112.509 34.4439L115.114 29.1017L115.536 29.292Z" fill="#F18E1D"/>
<path id="Vector_21" d="M99.1761 2.3096C112.285 2.38334 112.19 22.7295 99.0641 22.6534C85.9505 22.5773 86.0553 2.23349 99.1761 2.3096Z" fill="white"/>
<path id="Vector_22" d="M124.841 7.32597C139.258 7.41398 139.155 29.7891 124.713 29.7011C110.296 29.6178 110.401 7.23797 124.841 7.32597Z" fill="white"/>
<path id="Vector_23" d="M99.1499 7.21657C105.702 7.25938 105.652 17.4277 99.0879 17.3873C92.5359 17.3516 92.5812 7.17851 99.1499 7.21657Z" fill="black"/>
<path id="Vector_24" d="M123.56 13.4222C130.117 13.4603 130.064 23.631 123.5 23.593C116.948 23.5549 116.998 13.3818 123.56 13.4222Z" fill="black"/>
</g>
</g>
<defs>
<clipPath id="clip0_109_660">
<rect width="153" height="251" fill="white"/>
</clipPath>
</defs>
</svg>
