<svg width="251" height="411" viewBox="0 0 159 234" fill="none" xmlns="http://www.w3.org/2000/svg">
<g id="4 1" clip-path="url(#clip0_109_393)">
<g id="Group">
<path id="Vector" d="M67.0425 234H55.8572C54.9312 234 54.1818 233.254 54.1818 232.334C54.1818 231.414 54.9312 230.668 55.8572 230.668H65.5379L69.8003 191.29C69.8986 190.375 70.7207 189.708 71.6455 189.811C72.5659 189.91 73.2305 190.731 73.1322 191.645L68.709 232.512C68.6163 233.358 67.8981 234 67.0425 234Z" fill="#040000"/>
</g>
<g id="Group_2">
<path id="Vector_2" d="M115.575 234H104.388C103.531 234 102.814 233.359 102.723 232.512L98.2996 191.645C98.2002 190.731 98.8659 189.909 99.7863 189.811C100.69 189.715 101.532 190.375 101.63 191.29L105.893 230.668H115.573C116.498 230.668 117.249 231.414 117.249 232.334C117.249 233.254 116.499 234 115.575 234Z" fill="#040000"/>
</g>
<g id="Group_3">
<path id="Vector_3" d="M136.434 20.788C132.001 20.788 127.966 22.5864 124.889 25.5266C121.502 25.2522 88.9976 22.663 76.8103 23.2939C59.7453 24.1792 35.4324 29.1665 31.6715 29.9541C28.3854 25.8254 23.4462 23.1962 17.9184 23.1962C8.02204 23.1962 0 31.6136 0 41.9993C0 52.3838 8.0254 60.5613 17.9172 60.8023C26.6452 61.0145 32.7181 53.3802 32.7181 53.3802H53.984C53.984 53.3802 22.2053 190.633 81.1017 194.029C140.215 197.432 123.244 127.463 100.614 48.866L121.457 49.1848C124.499 54.692 130.057 58.3931 136.433 58.3931C146.063 58.3931 153.87 49.9746 153.87 39.59C153.872 29.2054 146.066 20.788 136.434 20.788Z" fill="#DAE24A"/>
</g>
<g id="Group_4">
<path id="Vector_4" d="M93.5358 23.1962C93.5358 23.1962 93.7312 -1.43733 101.533 0.0677595C109.337 1.57174 98.9732 23.7782 98.9732 23.7782" fill="#7FBF34"/>
</g>
<g id="Group_5">
<path id="Vector_5" d="M67.0648 24.1214C67.0648 24.1214 66.5387 -1.52954 58.7367 0.0721906C50.9324 1.67281 61.4665 24.6879 61.4665 24.6879" fill="#7FBF34"/>
</g>
<g id="Group_6">
<path id="Vector_6" d="M60.4915 41.1684C60.4915 41.1684 60.8388 53.128 63.8301 53.128C67.7986 53.128 67.2982 45.9236 67.0882 39.2134" fill="white"/>
</g>
<g id="Group_7">
<path id="Vector_7" d="M90.0396 39.5433C90.0396 39.5433 90.0396 52.4527 86.4631 52.4527C82.4945 52.4527 82.9949 45.2482 83.2049 38.537" fill="white"/>
</g>
<g id="Group_8">
<path id="Vector_8" d="M54.5894 44.724C54.1963 44.724 53.8187 44.5063 53.6355 44.1308C53.3786 43.6065 53.5976 42.9745 54.1248 42.7202C79.2029 30.5817 96.642 40.9107 97.3737 41.355C97.8718 41.6594 98.0282 42.3081 97.7233 42.8046C97.4183 43.3 96.7694 43.4577 96.2645 43.1545C96.0958 43.0512 79.0309 33.0098 55.0541 44.6162C54.9033 44.6895 54.7447 44.724 54.5894 44.724Z" fill="#040000"/>
</g>
<g id="Group_9">
<path id="Vector_9" d="M96.8164 46.2124C96.3439 46.2124 95.9127 45.8958 95.7899 45.4204C94.4987 40.4375 98.2248 37.7817 98.3835 37.6706C98.8638 37.3374 99.525 37.454 99.8601 37.9316C100.195 38.4081 100.079 39.0635 99.6032 39.3978C99.4803 39.4867 96.9303 41.3672 97.8451 44.8939C97.9914 45.4582 97.6496 46.0336 97.0822 46.1791C96.9928 46.2013 96.9046 46.2124 96.8164 46.2124Z" fill="#040000"/>
</g>
<g id="Group_10">
<path id="Vector_10" d="M54.5861 47.6275C54.5772 47.6275 54.5671 47.6275 54.5582 47.6275C53.9729 47.612 53.5093 47.1277 53.525 46.5456C53.5998 43.6265 52.2304 42.809 52.1723 42.7757C51.673 42.4902 51.4809 41.8549 51.7546 41.3517C52.0294 40.8485 52.6437 40.6486 53.1553 40.9052C53.2614 40.9585 55.7589 42.2692 55.6472 46.599C55.6316 47.1732 55.1591 47.6275 54.5861 47.6275Z" fill="#040000"/>
</g>
<g id="Group_11">
<path id="Vector_11" d="M5.57025 151.158C5.22958 151.158 4.88443 151.054 4.58732 150.84C3.83896 150.299 3.67253 149.257 4.21537 148.512C21.6747 124.604 43.4175 113.127 44.3345 112.65C45.1533 112.222 46.1652 112.539 46.5942 113.354C47.0231 114.169 46.707 115.176 45.8871 115.602C45.6693 115.715 23.9008 127.222 6.92625 150.47C6.60009 150.92 6.08852 151.158 5.57025 151.158Z" fill="#DAE24A"/>
</g>
<g id="Group_12">
<path id="Vector_12" d="M10.9675 152.423C10.9564 152.423 10.9441 152.423 10.9318 152.423C10.0069 152.403 9.27197 151.642 9.29208 150.722C9.32 149.357 9.13682 147.599 8.09804 146.966C6.7197 146.128 3.92282 147.106 2.78464 147.713C1.96814 148.15 0.953931 147.841 0.51608 147.032C0.0793471 146.222 0.385395 145.211 1.2019 144.776C1.73357 144.494 6.48179 142.073 9.84944 144.126C11.7706 145.296 12.7111 147.539 12.6419 150.792C12.624 151.7 11.8767 152.423 10.9675 152.423Z" fill="#DAE24A"/>
</g>
<g id="Group_13">
<path id="Vector_13" d="M115.539 107.793C115.189 107.793 114.836 107.685 114.536 107.46C113.795 106.908 113.644 105.864 114.2 105.128C114.82 104.306 129.672 84.8505 156.18 71.649C157.008 71.238 158.015 71.5713 158.428 72.3921C158.842 73.2152 158.507 74.216 157.681 74.6281C131.872 87.4797 117.028 106.93 116.881 107.125C116.551 107.563 116.048 107.793 115.539 107.793Z" fill="#DAE24A"/>
</g>
<g id="Group_14">
<path id="Vector_14" d="M157.327 80.3119C157.246 80.3119 157.164 80.3063 157.082 80.2941C153.842 79.8231 151.767 78.5302 150.917 76.4497C149.429 72.8097 152.583 68.5533 152.948 68.0801C153.511 67.3481 154.561 67.2104 155.297 67.7702C156.031 68.3289 156.171 69.373 155.61 70.1039C154.989 70.917 153.364 73.6006 154.022 75.199C154.486 76.3276 156.205 76.7996 157.566 76.9973C158.481 77.1306 159.115 77.9759 158.982 78.8868C158.86 79.7154 158.144 80.3119 157.327 80.3119Z" fill="#DAE24A"/>
</g>
<g id="Group_15">
<path id="Vector_15" d="M112.109 91.0441C111.48 88.506 110.828 85.9413 110.156 83.3576C94.8158 85.367 60.2368 85.6102 48.3702 85.6336C48.0474 88.0728 47.7369 90.6043 47.4442 93.2001C70.8078 95.9682 103.053 92.2171 112.109 91.0441Z" fill="#F18E1D"/>
</g>
<g id="Group_16">
<path id="Vector_16" d="M113.304 95.9526C93.3191 99.3616 57.2065 97.6565 47.0254 97.0823C46.8333 98.9695 46.6546 100.89 46.4904 102.832C60.8177 104.356 104.552 105.585 115.576 105.875C114.865 102.619 114.107 99.3093 113.304 95.9526Z" fill="#7FBF34"/>
</g>
<g id="Group_17">
<path id="Vector_17" d="M116.598 110.721C98.7576 111.529 57.6946 107.457 46.2144 106.263C45.9139 110.28 45.6883 114.378 45.5565 118.499C70.1767 121.804 111.186 122.699 118.855 122.842C118.203 118.907 117.446 114.863 116.598 110.721Z" fill="#F18E1D"/>
</g>
<g id="Group_18">
<path id="Vector_18" d="M119.721 128.455C98.4225 129.142 57.1327 124.59 45.4493 123.24C45.4057 126.503 45.4281 129.766 45.5286 133.003C62.5277 134.658 110.483 136.808 120.79 137.258C120.508 134.4 120.15 131.464 119.721 128.455Z" fill="#7FBF34"/>
</g>
<g id="Group_19">
<path id="Vector_19" d="M45.8135 139.055C46.0559 142.851 46.4256 146.58 46.9338 150.206C65.3302 152.062 108.624 150.857 121.515 150.441C121.502 147.837 121.401 145.142 121.214 142.364C105.461 142.45 59.0082 139.82 45.8135 139.055Z" fill="#F18E1D"/>
</g>
<g id="Group_20">
<path id="Vector_20" d="M28.2392 41.9993C28.2392 48.4662 23.3692 53.709 17.361 53.709C11.3529 53.709 6.48291 48.4662 6.48291 41.9993C6.48291 35.5324 11.3529 30.2896 17.361 30.2896C23.3692 30.2896 28.2392 35.5313 28.2392 41.9993Z" fill="white"/>
</g>
<g id="Group_21">
<path id="Vector_21" d="M148.451 39.1879C148.451 45.877 143.521 51.3008 137.44 51.3008C131.357 51.3008 126.426 45.877 126.426 39.1879C126.426 32.4989 131.357 27.075 137.44 27.075C143.521 27.075 148.451 32.4989 148.451 39.1879Z" fill="white"/>
</g>
<g id="Group_22">
<path id="Vector_22" d="M10.9217 39.5733C13.1478 40.1121 17.8056 40.8274 23.2541 39.2401C23.7981 39.0824 24.2862 39.63 24.0684 40.1498C23.2262 42.1425 21.1509 45.6948 17.0304 45.7381C13.0373 45.777 10.9619 42.568 10.0728 40.6208C9.81146 40.0487 10.3074 39.4223 10.9217 39.5733Z" fill="#040000"/>
</g>
<g id="Group_23">
<path id="Vector_23" d="M131.3 37.0441C133.525 37.5829 138.184 38.2982 143.633 36.7109C144.176 36.5532 144.664 37.1008 144.446 37.6206C143.604 39.6133 141.53 43.1656 137.408 43.2067C133.416 43.2478 131.341 40.0388 130.451 38.0916C130.19 37.5184 130.685 36.8931 131.3 37.0441Z" fill="#040000"/>
</g>
</g>
<defs>
<clipPath id="clip0_109_393">
<rect width="159" height="234" fill="white"/>
</clipPath>
</defs>
</svg>
