<svg width="152" height="37" viewBox="0 0 152 37" fill="none" xmlns="http://www.w3.org/2000/svg">
<g clip-path="url(#clip0_155_12720)">
<path d="M35.6607 19.0079L28.4387 32.1639C28.1621 32.5287 27.7569 32.7743 27.3057 32.8509H12.8626C12.4114 32.7743 12.0062 32.5287 11.7297 32.1639L4.50765 19.0079C4.34542 18.5636 4.34542 18.0763 4.50765 17.6319L11.7297 4.47595C12.0062 4.11122 12.4114 3.86556 12.8626 3.78895H27.3057C27.7569 3.86556 28.1621 4.11122 28.4387 4.47595L35.6596 17.6319C35.8219 18.0763 35.8219 18.5636 35.6596 19.0079M38.7436 16.3139L31.0697 2.32495C30.7195 1.75036 30.2364 1.26832 29.6611 0.919394C29.0858 0.570472 28.435 0.364886 27.7637 0.319946L12.4057 0.319946C11.7353 0.365822 11.0858 0.571848 10.5116 0.920727C9.93736 1.26961 9.45523 1.75116 9.10565 2.32495L1.42365 16.3149C1.12466 16.9412 0.969482 17.6264 0.969482 18.3204C0.969482 19.0144 1.12466 19.6997 1.42365 20.3259L9.10165 34.3149C9.45104 34.8893 9.9334 35.3713 10.5081 35.7203C11.0827 36.0692 11.7329 36.2749 12.4037 36.3199H27.7617C28.4321 36.2746 29.0818 36.0687 29.6561 35.7198C30.2304 35.3709 30.7125 34.8891 31.0616 34.3149L38.7407 20.3259C39.0396 19.6997 39.1948 19.0144 39.1948 18.3204C39.1948 17.6264 39.0396 16.9412 38.7407 16.3149" fill="#333333"/>
<path d="M8.67249 21.055H20.0845V18.611H8.67249V21.055Z" fill="#333333"/>
<path d="M10.9105 25.638H20.0845V23.194H10.9105V25.638Z" fill="#333333"/>
<path d="M13.1475 30.2179H20.0845V27.7759H13.1475V30.2179Z" fill="#333333"/>
<path d="M63.0395 17.123C64.7915 20.3708 66.3606 23.714 67.7395 27.137C67.7795 27.2134 67.8033 27.2972 67.8095 27.3832C67.8157 27.4692 67.8041 27.5556 67.7755 27.637C67.7482 27.7167 67.7034 27.7894 67.6444 27.8496C67.5854 27.9098 67.5137 27.9561 67.4345 27.985L66.5635 28.385C66.4942 28.4259 66.4161 28.4493 66.3357 28.4531C66.2554 28.4569 66.1753 28.4411 66.1025 28.407C66.0275 28.3705 65.9616 28.3177 65.9097 28.2525C65.8578 28.1873 65.8212 28.1112 65.8025 28.03C64.4948 24.6516 63.0046 21.3467 61.3385 18.13C61.2884 18.058 61.2544 17.9761 61.2389 17.8898C61.2233 17.8035 61.2266 17.7149 61.2485 17.63C61.2681 17.5473 61.3062 17.4702 61.3599 17.4044C61.4135 17.3385 61.4815 17.2857 61.5585 17.25L62.2585 16.85C62.3224 16.8032 62.3966 16.7722 62.4748 16.7597C62.553 16.7472 62.6331 16.7534 62.7085 16.778C62.7854 16.8048 62.8554 16.8486 62.9132 16.906C62.971 16.9635 63.0152 17.0332 63.0425 17.11M56.2265 18.033C55.2235 21.5632 53.7277 24.9343 51.7835 28.047C51.7475 28.1186 51.6964 28.1816 51.6337 28.2317C51.5711 28.2817 51.4983 28.3177 51.4205 28.337C51.344 28.3548 51.2646 28.3551 51.188 28.3377C51.1114 28.3204 51.0398 28.286 50.9785 28.237L50.3035 27.837C50.2251 27.8024 50.1561 27.7496 50.1022 27.683C50.0482 27.6163 50.011 27.5378 49.9935 27.454C49.9741 27.3685 49.9743 27.2798 49.994 27.1944C50.0137 27.109 50.0525 27.0292 50.1075 26.961C51.8752 23.9366 53.2363 20.6923 54.1555 17.312C54.1665 17.2277 54.197 17.1471 54.2446 17.0766C54.2922 17.0062 54.3555 16.9477 54.4295 16.906C54.5007 16.8661 54.5809 16.8452 54.6625 16.8452C54.7441 16.8452 54.8243 16.8661 54.8955 16.906L55.8535 17.261C55.9321 17.2804 56.0052 17.3175 56.0672 17.3695C56.1293 17.4215 56.1786 17.487 56.2115 17.561C56.2473 17.6366 56.2668 17.719 56.2689 17.8027C56.271 17.8864 56.2555 17.9696 56.2235 18.047M68.1135 13.212V13.259C68.1256 13.3445 68.1188 13.4316 68.0936 13.5142C68.0684 13.5968 68.0253 13.6728 67.9675 13.737C67.9127 13.798 67.8437 13.8446 67.7666 13.8727C67.6895 13.9008 67.6067 13.9094 67.5255 13.898H50.1045C50.0233 13.9094 49.9405 13.9008 49.8634 13.8727C49.7863 13.8446 49.7173 13.798 49.6625 13.737C49.6047 13.6728 49.5616 13.5968 49.5364 13.5142C49.5111 13.4316 49.5044 13.3445 49.5165 13.259V13.212C49.5044 13.1264 49.5111 13.0393 49.5364 12.9567C49.5616 12.8741 49.6047 12.7981 49.6625 12.734C49.7173 12.6729 49.7863 12.6263 49.8634 12.5982C49.9405 12.5701 50.0233 12.5615 50.1045 12.573H57.7045V8.81195C57.6924 8.72645 57.6991 8.63932 57.7244 8.55673C57.7496 8.47413 57.7926 8.39809 57.8505 8.33395C57.9053 8.27292 57.9743 8.2263 58.0514 8.19823C58.1284 8.17015 58.2113 8.16147 58.2925 8.17295H59.3395C59.4207 8.16147 59.5035 8.17015 59.5806 8.19823C59.6577 8.2263 59.7267 8.27292 59.7815 8.33395C59.8393 8.39809 59.8824 8.47413 59.9076 8.55673C59.9328 8.63932 59.9396 8.72645 59.9275 8.81195V12.576H67.5275C67.6087 12.5645 67.6915 12.5731 67.7686 12.6012C67.8457 12.6293 67.9147 12.6759 67.9695 12.737C68.0273 12.8011 68.0704 12.8771 68.0956 12.9597C68.1208 13.0423 68.1276 13.1294 68.1155 13.215" fill="#333333"/>
<path d="M87.4905 22.242H92.5905V18.731H87.4905V22.242ZM87.4905 17.599H92.5905V14.253H87.4905V17.599ZM81.0235 13.051H86.0105C86.8523 12.2097 87.645 11.3205 88.3845 10.388H82.7845C82.2615 11.317 81.672 12.207 81.0205 13.051H81.0235ZM80.9145 17.599H85.3565V14.253H80.9135L80.9145 17.599ZM80.6945 22.242H85.3535V18.731H80.9135C80.8995 19.9043 80.8261 21.0761 80.6935 22.242H80.6945ZM83.6945 8.52595C83.6065 8.71495 83.5185 8.94995 83.3895 9.23295H89.9655C90.0467 9.22147 90.1295 9.23015 90.2066 9.25822C90.2837 9.2863 90.3527 9.33291 90.4075 9.39395C90.4653 9.45771 90.5083 9.53341 90.5335 9.61568C90.5588 9.69794 90.5656 9.78476 90.5535 9.86995V9.91695C90.5651 10.2029 90.4806 10.4846 90.3135 10.717C89.6707 11.535 88.9798 12.314 88.2445 13.05H94.1445C94.2257 13.0385 94.3085 13.0471 94.3856 13.0752C94.4627 13.1033 94.5317 13.1499 94.5865 13.211C94.6443 13.2747 94.6873 13.3504 94.7125 13.4327C94.7378 13.5149 94.7446 13.6018 94.7325 13.687V26.0359C94.7325 28.5359 94.4495 28.864 91.8585 28.864C91.5975 28.864 90.7045 28.817 89.2235 28.77C89.1398 28.775 89.056 28.7618 88.9779 28.7313C88.8998 28.7008 88.8293 28.6536 88.7713 28.5931C88.7133 28.5326 88.6691 28.4602 88.6418 28.3809C88.6146 28.3016 88.6049 28.2174 88.6135 28.134C88.5915 27.734 88.8135 27.521 89.2235 27.545C90.6165 27.592 91.4015 27.663 91.6235 27.663C92.5595 27.663 92.5815 27.639 92.5815 26.108V23.398H80.5225C80.2368 25.317 79.5558 27.1558 78.5225 28.798C78.4884 28.8751 78.4359 28.9428 78.3697 28.9951C78.3035 29.0474 78.2255 29.0827 78.1425 29.0979C78.0605 29.1114 77.9764 29.1038 77.8981 29.076C77.8197 29.0482 77.7497 29.0011 77.6945 28.939L77.0625 28.373C76.9318 28.2765 76.8436 28.1331 76.8165 27.9729C76.7877 27.81 76.8213 27.6423 76.9105 27.503C78.2385 25.146 78.7615 22.342 78.7615 17.487V15.573L77.8475 16.373C77.795 16.4406 77.7243 16.4918 77.6437 16.5207C77.5631 16.5496 77.476 16.5549 77.3925 16.536C77.3078 16.5143 77.2305 16.4702 77.1689 16.4082C77.1073 16.3463 77.0636 16.2688 77.0425 16.184L76.8225 15.713C76.7411 15.571 76.7141 15.4043 76.7465 15.2439C76.7789 15.0835 76.8684 14.9403 76.9985 14.841C79.0729 12.9243 80.701 10.5752 81.7675 7.95995C81.7897 7.88504 81.8265 7.81525 81.8758 7.75458C81.925 7.69391 81.9857 7.64355 82.0545 7.6064C82.1232 7.56924 82.1986 7.54601 82.2763 7.53804C82.3541 7.53007 82.4326 7.53752 82.5075 7.55995L83.3135 7.72495C83.4014 7.72876 83.4865 7.75659 83.5597 7.80543C83.6329 7.85427 83.6913 7.92224 83.7285 8.00195C83.7685 8.08433 83.7874 8.17537 83.7833 8.26686C83.7793 8.35835 83.7526 8.4474 83.7055 8.52595H83.6945Z" fill="#333333"/>
<path d="M111.46 12.1589C112.266 12.5591 113.051 13 113.812 13.4799C114.339 13.015 114.82 12.5013 115.249 11.9459C114.857 11.6629 114.422 11.3089 113.877 10.9079C113.11 11.3955 112.302 11.8141 111.46 12.1589ZM116.206 8.92694C115.824 9.33682 115.417 9.72288 114.987 10.0829L116.163 10.9559C116.239 10.9987 116.303 11.0588 116.351 11.1313C116.399 11.2038 116.429 11.2866 116.438 11.3729C116.45 11.4602 116.44 11.5488 116.412 11.6319C116.383 11.715 116.335 11.7903 116.272 11.8519L116.011 12.2059L116.033 12.2299C116.123 12.2489 116.205 12.2929 116.271 12.3568C116.336 12.4207 116.382 12.502 116.403 12.591C116.424 12.68 116.419 12.7732 116.389 12.8596C116.359 12.946 116.305 13.0221 116.233 13.0789C115.85 13.503 115.435 13.8974 114.992 14.2589L116.168 15.1319C116.242 15.1763 116.305 15.2371 116.351 15.3096C116.398 15.3821 116.427 15.4643 116.436 15.5499C116.447 15.6364 116.439 15.7243 116.411 15.807C116.384 15.8898 116.338 15.9653 116.277 16.0279L116.212 16.1219C116.171 16.1949 116.114 16.2573 116.044 16.3042C115.975 16.3511 115.896 16.3811 115.812 16.3919C115.73 16.4006 115.646 16.3892 115.568 16.3587C115.491 16.3283 115.421 16.2797 115.366 16.2169C114.713 15.6979 114.212 15.3169 113.885 15.0609C113.173 15.5168 112.423 15.9115 111.643 16.2409C111.51 16.3097 111.358 16.3308 111.211 16.3008C111.065 16.2707 110.933 16.1914 110.837 16.0759C110.554 15.7929 110.637 15.4859 111.057 15.2969C111.643 15.001 112.211 14.67 112.757 14.3059C112.125 13.9059 111.603 13.5749 111.189 13.3619C111.106 13.3313 111.031 13.2804 110.972 13.2136C110.914 13.1469 110.872 13.0665 110.853 12.9797C110.833 12.893 110.835 12.8027 110.859 12.7169C110.883 12.6312 110.928 12.5529 110.989 12.4889L111.165 12.2529L110.904 11.9929C110.828 11.9396 110.769 11.8656 110.733 11.7797C110.697 11.6937 110.687 11.5994 110.703 11.5077C110.719 11.416 110.761 11.3309 110.824 11.2622C110.887 11.1935 110.968 11.1441 111.057 11.1199C111.653 10.842 112.222 10.5103 112.757 10.1289C112.125 9.72894 111.603 9.39794 111.189 9.18494C111.108 9.15468 111.035 9.1041 110.978 9.03797C110.921 8.97185 110.882 8.89234 110.864 8.80694C110.844 8.71939 110.845 8.62811 110.867 8.54099C110.89 8.45387 110.933 8.37354 110.993 8.30694C111.031 8.24625 111.081 8.19393 111.14 8.15318C111.199 8.11243 111.265 8.08411 111.335 8.06994C111.405 8.05721 111.477 8.05954 111.546 8.07679C111.615 8.09403 111.68 8.12579 111.735 8.16994C112.454 8.50559 113.152 8.88393 113.825 9.30294C114.228 8.9508 114.606 8.5723 114.957 8.16994C115.04 8.03896 115.169 7.94419 115.319 7.90483C115.468 7.86547 115.627 7.88445 115.763 7.95794L116.024 8.07594C116.438 8.26494 116.524 8.59494 116.224 8.92494M105.424 9.44394C106.665 9.30194 108.124 9.01894 109.801 8.66494C109.876 8.63473 109.957 8.62349 110.037 8.63222C110.117 8.64094 110.193 8.66937 110.259 8.71494C110.328 8.76297 110.385 8.82581 110.427 8.89883C110.468 8.97186 110.493 9.05322 110.498 9.13694C110.521 9.21785 110.526 9.30273 110.513 9.38575C110.5 9.46878 110.469 9.54798 110.422 9.61794C110.379 9.68484 110.32 9.74028 110.25 9.7796C110.18 9.81892 110.102 9.84099 110.022 9.84394C109.042 10.0559 108.041 10.2219 107.082 10.3869L107.126 11.6609H109.848C109.93 11.6495 110.013 11.6581 110.09 11.6862C110.167 11.7143 110.236 11.7609 110.29 11.8219C110.348 11.8857 110.391 11.9614 110.416 12.0437C110.442 12.1259 110.449 12.2127 110.436 12.2979C110.436 12.4866 110.24 12.5809 109.848 12.5809H107.17L107.235 14.3029H109.848C109.93 14.2915 110.013 14.3001 110.09 14.3282C110.167 14.3563 110.236 14.4029 110.29 14.4639C110.348 14.5277 110.391 14.6034 110.416 14.6857C110.442 14.7679 110.449 14.8547 110.436 14.9399C110.436 15.1289 110.236 15.2469 109.848 15.2469H107.278L107.343 17.0399H119.924L119.968 15.2469H117.419C117.338 15.2584 117.255 15.2497 117.178 15.2217C117.101 15.1936 117.032 15.147 116.977 15.0859C116.92 15.0221 116.877 14.9464 116.852 14.8642C116.826 14.7819 116.819 14.6951 116.831 14.6099C116.831 14.4209 117.031 14.3029 117.419 14.3029H120.012L120.056 12.5809H117.421C117.34 12.5924 117.257 12.5837 117.18 12.5557C117.103 12.5276 117.034 12.481 116.979 12.4199C116.922 12.3561 116.879 12.2804 116.854 12.1982C116.828 12.1159 116.821 12.0291 116.833 11.9439C116.833 11.7553 117.029 11.6609 117.421 11.6609H120.099L120.164 10.0089H117.29C117.209 10.0204 117.126 10.0117 117.049 9.98366C116.972 9.95559 116.903 9.90897 116.848 9.84794C116.791 9.7841 116.748 9.70836 116.723 9.62609C116.698 9.54383 116.691 9.45706 116.703 9.37194C116.703 9.06494 116.903 8.89994 117.291 8.89994H121.797C121.881 8.8888 121.965 8.8985 122.044 8.92817C122.122 8.95784 122.192 9.00656 122.247 9.06994C122.305 9.13628 122.348 9.21466 122.372 9.29941C122.396 9.38415 122.4 9.47314 122.385 9.55994L122.085 17.0389H122.785C122.867 17.0275 122.95 17.0361 123.027 17.0642C123.104 17.0923 123.173 17.1389 123.227 17.1999C123.285 17.2637 123.328 17.3394 123.353 17.4217C123.379 17.5039 123.386 17.5907 123.373 17.6759V20.2759C123.386 20.3611 123.379 20.4479 123.353 20.5302C123.328 20.6124 123.285 20.6881 123.227 20.7519C123.173 20.813 123.104 20.8596 123.027 20.8877C122.95 20.9157 122.867 20.9244 122.785 20.9129H121.805C121.724 20.9244 121.641 20.9157 121.564 20.8877C121.487 20.8596 121.418 20.813 121.363 20.7519C121.306 20.6881 121.263 20.6124 121.238 20.5302C121.212 20.4479 121.205 20.3611 121.217 20.2759V18.1279H106.037V20.2739C106.05 20.3591 106.043 20.4459 106.017 20.5282C105.992 20.6104 105.949 20.6861 105.891 20.7499C105.837 20.811 105.768 20.8576 105.691 20.8857C105.614 20.9137 105.531 20.9224 105.449 20.9109H104.469C104.388 20.9224 104.305 20.9137 104.228 20.8857C104.151 20.8576 104.082 20.811 104.027 20.7499C103.97 20.6861 103.927 20.6104 103.902 20.5282C103.876 20.4459 103.869 20.3591 103.881 20.2739V17.6739C103.869 17.5887 103.876 17.5019 103.902 17.4197C103.927 17.3374 103.97 17.2617 104.027 17.1979C104.082 17.1369 104.151 17.0903 104.228 17.0622C104.305 17.0341 104.388 17.0255 104.469 17.0369H105.144L104.861 10.1239C104.849 10.0402 104.854 9.95483 104.876 9.87301C104.897 9.79118 104.935 9.71461 104.987 9.64794C105.037 9.5841 105.1 9.53224 105.173 9.49623C105.245 9.46022 105.325 9.44098 105.405 9.43994M120.016 20.3399C120.029 20.4899 119.998 20.6403 119.929 20.7739C119.86 20.9074 119.754 21.0187 119.624 21.0949C117.976 22.1798 116.236 23.1194 114.424 23.9029H122.869C122.951 23.8915 123.034 23.9001 123.111 23.9282C123.188 23.9563 123.257 24.0029 123.311 24.0639C123.369 24.1277 123.412 24.2034 123.437 24.2857C123.463 24.368 123.47 24.4547 123.457 24.5399C123.457 24.8939 123.257 25.0829 122.869 25.0829H115.05V27.4899C115.05 28.8579 114.723 29.0899 112.197 29.0899C111.326 29.0899 110.325 29.0659 109.17 28.9959C109.091 28.9974 109.012 28.9818 108.94 28.9502C108.867 28.9186 108.802 28.8718 108.748 28.8129C108.636 28.689 108.577 28.5261 108.582 28.3589C108.56 27.9589 108.782 27.7459 109.192 27.7689C110.607 27.8159 111.522 27.8869 111.958 27.8869C112.916 27.8869 112.807 28.0049 112.807 26.9199V25.0799H104.358C104.277 25.0914 104.194 25.0827 104.117 25.0547C104.04 25.0266 103.971 24.98 103.916 24.9189C103.859 24.8551 103.816 24.7794 103.791 24.6972C103.765 24.6149 103.758 24.5281 103.77 24.4429C103.77 24.0889 103.97 23.8999 104.358 23.8999H112.807V23.4519C112.795 23.3667 112.802 23.2799 112.828 23.1977C112.853 23.1154 112.896 23.0397 112.953 22.9759C113.008 22.9149 113.077 22.8683 113.154 22.8402C113.231 22.8121 113.314 22.8035 113.395 22.8149H114.005C115.265 22.2426 116.493 21.6047 117.685 20.9039H107.799C107.718 20.9154 107.635 20.9067 107.558 20.8787C107.481 20.8506 107.412 20.804 107.357 20.7429C107.3 20.6791 107.257 20.6034 107.232 20.5212C107.206 20.4389 107.199 20.3521 107.211 20.2669C107.211 19.9839 107.411 19.8189 107.799 19.8189H119.429C119.821 19.8189 120.017 20.0079 120.017 20.3379" fill="#333333"/>
<path d="M148.017 14.754C148.026 14.8375 148.018 14.9223 147.992 15.0022C147.965 15.0822 147.922 15.1555 147.865 15.217C147.81 15.2756 147.741 15.3199 147.666 15.3462C147.59 15.3726 147.509 15.38 147.43 15.368H141.397C141.316 15.3794 141.233 15.3708 141.156 15.3427C141.079 15.3146 141.01 15.268 140.956 15.207C140.898 15.1431 140.855 15.0672 140.829 14.9847C140.804 14.9023 140.797 14.8153 140.81 14.73C140.81 14.352 141.005 14.163 141.397 14.163H147.427C147.507 14.153 147.588 14.1614 147.664 14.1876C147.74 14.2137 147.809 14.2569 147.866 14.3139C147.923 14.3708 147.966 14.44 147.992 14.5161C148.018 14.5922 148.026 14.6732 148.016 14.753M150.565 11.211V14.375C150.577 14.4603 150.57 14.5473 150.545 14.6297C150.519 14.7122 150.476 14.7881 150.418 14.852C150.364 14.913 150.295 14.9596 150.218 14.9877C150.141 15.0158 150.058 15.0244 149.977 15.013H148.977C148.895 15.0244 148.812 15.0158 148.735 14.9877C148.658 14.9596 148.589 14.913 148.535 14.852C148.477 14.788 148.434 14.7121 148.408 14.6297C148.383 14.5473 148.376 14.4603 148.388 14.375V11.775H140.396V14.375C140.408 14.4603 140.401 14.5473 140.376 14.6297C140.35 14.7121 140.307 14.788 140.25 14.852C140.195 14.913 140.126 14.9596 140.049 14.9877C139.972 15.0158 139.889 15.0244 139.807 15.013H138.871C138.79 15.0244 138.707 15.0158 138.63 14.9877C138.553 14.9596 138.484 14.913 138.43 14.852C138.372 14.788 138.329 14.7121 138.303 14.6297C138.278 14.5473 138.271 14.4603 138.284 14.375V11.213C138.271 11.1276 138.278 11.0406 138.303 10.9582C138.329 10.8758 138.372 10.7999 138.43 10.736C138.484 10.6749 138.553 10.6283 138.63 10.6002C138.707 10.5722 138.79 10.5635 138.871 10.575H143.072V8.59196C143.059 8.50661 143.066 8.41962 143.091 8.33718C143.117 8.25474 143.16 8.17887 143.218 8.11496C143.272 8.05392 143.341 8.00731 143.418 7.97923C143.495 7.95116 143.578 7.94248 143.66 7.95396H144.705C144.786 7.94248 144.869 7.95116 144.946 7.97923C145.023 8.00731 145.092 8.05392 145.147 8.11496C145.204 8.1789 145.247 8.25478 145.273 8.33721C145.298 8.41964 145.305 8.50661 145.293 8.59196V10.575H149.974C150.055 10.5635 150.138 10.5722 150.215 10.6002C150.292 10.6283 150.361 10.6749 150.416 10.736C150.473 10.7999 150.516 10.8757 150.542 10.9582C150.567 11.0406 150.574 11.1276 150.561 11.213M150.257 19.099C150.269 19.1842 150.262 19.2709 150.236 19.3532C150.211 19.4355 150.168 19.5112 150.111 19.575C150.056 19.636 149.987 19.6826 149.91 19.7107C149.833 19.7388 149.75 19.7474 149.668 19.736H146.686V26.324C146.686 27.41 146.533 27.387 147.753 27.387C148.453 27.387 148.559 27.387 148.776 26.749C148.933 25.7569 149.007 24.7534 148.996 23.749C149.018 23.3 149.236 23.088 149.628 23.135L150.477 23.229C150.557 23.2303 150.637 23.2497 150.709 23.2859C150.782 23.3221 150.845 23.374 150.895 23.438C150.947 23.5046 150.985 23.5812 151.007 23.663C151.028 23.7448 151.034 23.8302 151.022 23.914C151 24.622 151 25.047 150.934 25.756C150.979 26.2008 150.932 26.6501 150.798 27.0764C150.663 27.5027 150.442 27.897 150.15 28.235C149.854 28.4213 149.518 28.5347 149.17 28.566C148.677 28.6164 148.183 28.6401 147.689 28.637C144.967 28.637 144.531 28.354 144.531 26.913V19.737H143.268C143.224 24.672 141.809 26.962 137.345 28.804C137.278 28.8407 137.203 28.8627 137.126 28.8683C137.049 28.874 136.971 28.8633 136.899 28.837C136.824 28.8091 136.756 28.7667 136.698 28.7122C136.64 28.6578 136.594 28.5925 136.561 28.52L136.496 28.378C136.443 28.3078 136.407 28.2258 136.391 28.1388C136.375 28.0519 136.381 27.9625 136.406 27.878C136.43 27.7946 136.475 27.7188 136.537 27.6579C136.598 27.5971 136.675 27.5533 136.759 27.531C139.959 26.138 141.071 24.154 141.159 19.739H139.133C139.051 19.7504 138.968 19.7418 138.891 19.7137C138.814 19.6856 138.745 19.639 138.69 19.578C138.633 19.514 138.59 19.4381 138.564 19.3557C138.539 19.2733 138.532 19.1863 138.544 19.101C138.535 19.0173 138.543 18.9325 138.57 18.8526C138.596 18.7726 138.64 18.6994 138.698 18.638C138.752 18.5793 138.82 18.5349 138.896 18.5086C138.972 18.4822 139.053 18.4748 139.133 18.487H149.672C149.751 18.4748 149.832 18.4822 149.908 18.5086C149.984 18.5349 150.052 18.5793 150.107 18.638C150.164 18.6994 150.208 18.7726 150.234 18.8526C150.261 18.9325 150.269 19.0173 150.259 19.101M137.979 10.692C136.825 13.88 136.301 15.013 135.888 16.146C137.184 17.5811 137.884 19.4552 137.849 21.388C137.849 23.371 136.978 24.388 134.8 24.388C134.726 24.3915 134.652 24.3798 134.584 24.3537C134.515 24.3275 134.452 24.2875 134.4 24.236C134.288 24.1264 134.221 23.9784 134.215 23.822C134.15 23.444 134.346 23.208 134.759 23.208H134.584C135.52 23.208 135.89 22.783 135.89 21.036C135.893 19.4091 135.332 17.8314 134.301 16.573C134.199 16.4539 134.134 16.3077 134.115 16.1523C134.096 15.997 134.122 15.8393 134.192 15.699C134.97 13.8761 135.632 12.0057 136.173 10.099H133.581V28.308C133.593 28.3932 133.586 28.4802 133.561 28.5626C133.536 28.6451 133.493 28.721 133.436 28.785C133.381 28.846 133.312 28.8926 133.235 28.9207C133.158 28.9488 133.075 28.9574 132.994 28.946H132.254C132.172 28.9574 132.089 28.9488 132.012 28.9207C131.935 28.8926 131.866 28.846 131.811 28.785C131.754 28.721 131.711 28.6451 131.685 28.5627C131.66 28.4803 131.653 28.3933 131.666 28.308V9.60796C131.653 9.52261 131.66 9.43564 131.685 9.35321C131.711 9.27078 131.754 9.1949 131.811 9.13096C131.866 9.06992 131.935 9.02331 132.012 8.99523C132.089 8.96716 132.172 8.95848 132.254 8.96996H137.544C137.626 8.95848 137.709 8.96716 137.786 8.99523C137.863 9.02331 137.932 9.06992 137.987 9.13096C138.044 9.19487 138.087 9.27074 138.113 9.35318C138.138 9.43562 138.145 9.52261 138.133 9.60796V9.89196C138.132 10.1658 138.081 10.4372 137.981 10.692" fill="#333333"/>
</g>
<defs>
<clipPath id="clip0_155_12720">
<rect width="150.061" height="36" fill="white" transform="translate(0.969482 0.319946)"/>
</clipPath>
</defs>
</svg>
