<svg width="20" height="20" viewBox="0 0 20 20" fill="none" xmlns="http://www.w3.org/2000/svg">
<path d="M7.5 6.25H16.25C16.5814 6.24967 16.8992 6.11787 17.1335 5.88352C17.3679 5.64917 17.4997 5.33142 17.5 5V2.5C17.4997 2.16858 17.3679 1.85083 17.1335 1.61648C16.8992 1.38213 16.5814 1.25033 16.25 1.25H7.5C7.16858 1.25033 6.85083 1.38213 6.61648 1.61648C6.38213 1.85083 6.25033 2.16858 6.25 2.5V3.125H3.75V1.25H2.5V15.625C2.50033 15.9564 2.63213 16.2742 2.86648 16.5085C3.10083 16.7429 3.41858 16.8747 3.75 16.875H6.25V17.5C6.25033 17.8314 6.38213 18.1492 6.61648 18.3835C6.85083 18.6179 7.16858 18.7497 7.5 18.75H16.25C16.5814 18.7497 16.8992 18.6179 17.1335 18.3835C17.3679 18.1492 17.4997 17.8314 17.5 17.5V15C17.4997 14.6686 17.3679 14.3508 17.1335 14.1165C16.8992 13.8821 16.5814 13.7503 16.25 13.75H7.5C7.16858 13.7503 6.85083 13.8821 6.61648 14.1165C6.38213 14.3508 6.25033 14.6686 6.25 15V15.625H3.75V10.625H6.25V11.25C6.25033 11.5814 6.38213 11.8992 6.61648 12.1335C6.85083 12.3679 7.16858 12.4997 7.5 12.5H16.25C16.5814 12.4997 16.8992 12.3679 17.1335 12.1335C17.3679 11.8992 17.4997 11.5814 17.5 11.25V8.75C17.4997 8.41858 17.3679 8.10083 17.1335 7.86648C16.8992 7.63213 16.5814 7.50033 16.25 7.5H7.5C7.16858 7.50033 6.85083 7.63213 6.61648 7.86648C6.38213 8.10083 6.25033 8.41858 6.25 8.75V9.375H3.75V4.375H6.25V5C6.25033 5.33142 6.38213 5.64917 6.61648 5.88352C6.85083 6.11787 7.16858 6.24967 7.5 6.25ZM7.5 2.5H16.25L16.2506 5H7.5V2.5ZM7.5 15H16.25L16.2506 17.5H7.5V15ZM7.5 8.75H16.25L16.2506 11.25H7.5V8.75Z" fill="#E51D88"/>
</svg>
