<svg width="60" height="21" viewBox="0 0 60 21" fill="none" xmlns="http://www.w3.org/2000/svg">
<g clip-path="url(#clip0_155_6715)">
<path d="M43.2742 0.167489C47.909 0.0694126 52.5261 1.00239 56.5573 3.25312C57.5934 3.83152 58.808 4.57589 59.4216 5.63461C60.083 6.78135 59.0897 8.00604 58.2095 8.69006C57.186 9.48473 56.0468 10.131 54.8397 10.6038C54.6913 10.6616 54.5354 10.717 54.3795 10.6868C54.2009 10.6516 54.0626 10.5133 53.9419 10.375C52.6116 8.84598 52.0609 6.66818 52.5085 4.68905C52.5915 4.32441 52.589 3.78373 52.2168 3.75356C51.9251 3.72841 51.7641 4.08048 51.7088 4.36716C51.2385 6.73105 51.9276 9.29612 53.5219 11.1042C47.8059 13.5008 41.2574 13.2846 35.2798 11.6499C32.0583 10.7698 28.7741 9.4797 25.4822 10.0355C24.3154 10.2316 23.1334 10.7019 22.4066 11.6349C21.9716 12.1906 21.4611 12.9954 20.7972 12.7565C20.6111 12.6911 20.4602 12.5427 20.3546 12.3742C19.8768 11.6298 20.2138 10.6063 20.7997 9.94493C21.3882 9.28355 22.1828 8.84095 22.8216 8.22734C23.4603 7.61374 23.9482 6.69584 23.659 5.85842C23.488 5.36553 23.0806 4.99586 22.6707 4.67396C22.0169 4.16095 21.3052 3.70075 20.7821 3.05194C20.259 2.40312 19.9547 1.50283 20.2615 0.728284C20.3294 0.559794 20.4275 0.396333 20.5809 0.293228C20.8927 0.0845013 21.3303 0.200181 21.6195 0.43657C21.9087 0.672958 22.0998 1.00742 22.3337 1.30165C23.0504 2.20446 24.162 2.71496 25.2911 2.95134C28.5326 3.63285 31.8069 2.30505 34.9981 1.4123C37.6789 0.662899 40.4803 0.227843 43.2742 0.167489ZM55.9789 5.13417C55.9814 4.60355 55.5991 4.21628 55.071 4.21125C54.548 4.20873 54.1481 4.59852 54.1456 5.11908C54.1456 5.63712 54.5404 6.042 55.056 6.04452C55.5765 6.04955 55.9764 5.65473 55.9789 5.13417Z" fill="#D3D3D3"/>
<path d="M23.1485 7.43521C27.7832 7.33462 32.4003 8.27012 36.4315 10.5208C37.4676 11.0992 38.6822 11.8436 39.2959 12.9023C39.9572 14.0491 38.9639 15.2738 38.0837 15.9578C37.0602 16.7524 35.921 17.3987 34.7139 17.8715C34.5656 17.9294 34.4096 17.9847 34.2537 17.9545C34.0752 17.9193 33.9369 17.781 33.8162 17.6427C32.4858 16.1137 31.9351 13.9359 32.3827 11.9568C32.4657 11.5921 32.4632 11.0515 32.091 11.0213C31.7993 10.9961 31.6384 11.3482 31.583 11.6349C31.1128 13.9988 31.8018 16.5664 33.3962 18.372C27.6801 20.7685 21.1316 20.5523 15.154 18.9177C11.9326 18.0375 8.65082 16.7474 5.35646 17.3032C4.18961 17.4993 3.00766 17.9696 2.28089 18.9026C1.84835 19.4583 1.33534 20.2631 0.671439 20.0267C0.485346 19.9588 0.334459 19.8129 0.228839 19.6444C-0.248968 18.9001 0.0880116 17.8766 0.676469 17.2152C1.26493 16.5538 2.05959 16.1112 2.69583 15.4976C3.33459 14.884 3.82245 13.9661 3.53325 13.1287C3.36225 12.6358 2.95485 12.2661 2.54495 11.9442C1.8911 11.4312 1.17942 10.971 0.65635 10.3222C0.133277 9.67587 -0.17101 8.77307 0.135792 8.00103C0.203691 7.83254 0.301767 7.66908 0.455169 7.56598C0.767001 7.35725 1.20457 7.47293 1.49377 7.70932C1.78297 7.94571 1.97409 8.28017 2.20797 8.5744C2.92216 9.47721 4.03621 9.98519 5.16283 10.2241C8.40437 10.9056 11.6786 9.5778 14.8699 8.68505C17.5531 7.93314 20.3546 7.49808 23.1485 7.43773M35.8531 12.4069C35.8531 11.8763 35.4734 11.489 34.9453 11.484C34.4197 11.4815 34.0224 11.8713 34.0199 12.3918C34.0199 12.9099 34.4147 13.3148 34.9302 13.3173C35.4508 13.3198 35.8506 12.925 35.8531 12.4069Z" fill="#FF73C1"/>
</g>
<defs>
<clipPath id="clip0_155_6715">
<rect width="59.6379" height="20" fill="white" transform="translate(0 0.159973)"/>
</clipPath>
</defs>
</svg>
