<?xml version="1.0" encoding="utf-8"?>
<!-- Generator: Adobe Illustrator 27.9.0, SVG Export Plug-In . SVG Version: 6.00 Build 0)  -->
<svg version="1.1" id="圖層_1" xmlns="http://www.w3.org/2000/svg" xmlns:xlink="http://www.w3.org/1999/xlink" x="0px" y="0px"
	 viewBox="0 0 153 24" style="enable-background:new 0 0 153 24;" xml:space="preserve">
<style type="text/css">
	.st0{fill:#E51D88;}
	.st1{clip-path:url(#SVGID_00000036972386554288213780000015728736002556952761_);}
	.st2{fill:#5DE51D;}
	.st3{fill:#211DE5;}
	.st4{fill:#E5AD1D;}
</style>
<path class="st0" d="M23.1,7.5c-0.3,3.7-0.9,6.8-1.9,9.5c0.8,1.6,1.9,2.8,3.2,3.7c-0.6,0.6-1.6,1.8-2,2.7c-1.1-0.8-2-1.9-2.8-3.2
	c-0.8,1.3-1.9,2.4-3.1,3.4c-0.4-0.6-1.5-1.8-2.2-2.3c1.7-1.1,2.9-2.6,3.8-4.4c-0.5-1.6-0.9-3.3-1.2-5.2c-0.1,0.2-0.3,0.5-0.5,0.7
	c-0.2-0.5-0.8-1.6-1.4-2.3v2.6H6.3V9.8h8.6c-0.1-0.2-0.3-0.4-0.4-0.5c0.1-0.1,0.2-0.3,0.3-0.5H6.4V7.1C6.1,7.7,5.8,8.4,5.5,9v11.8
	c1.6-1.5,1.7-3.9,1.7-7.5h3c0,4.8-0.4,8.3-3,10.4c-0.3-0.7-1.1-1.9-1.8-2.5v2.4H2.4v-9.4c-0.3,0.3-0.5,0.7-0.8,1
	c-0.3-0.8-1.1-2.5-1.6-3.3c1.5-1.6,3-4,4-6.4l2.4,1V2.1h2.4v4.2h0.6V0h2.6v6.3h0.7V2.2h2.5v6C16.4,6,17.1,3.1,17.5,0l3,0.5
	c-0.2,1.3-0.5,2.7-0.8,3.9h4.2v3L23.1,7.5z M6.5,1.2C5.2,3.5,3.4,5.9,1.7,7.4C1.3,6.7,0.6,5.3,0.1,4.6C1.5,3.5,2.9,1.5,3.7,0
	L6.5,1.2z M15.6,15.9c0.2,0.8,0.5,1.9,0.7,2.5c-3.5,2.1-4.2,2.8-4.6,3.4c-0.2-0.8-0.8-2.3-1.2-3c0.5-0.3,0.9-0.9,0.9-1.9v-3.7h2.9
	v3.3L15.6,15.9z M18.7,7.8c0.2,1.6,0.4,3.2,0.8,4.6c0.3-1.5,0.5-3.1,0.6-4.9h-1.3L18.7,7.8z"/>
<path class="st0" d="M29.5,5.1c-0.8,1.4-1.7,2.6-2.6,3.6c-0.5-0.7-1.8-2-2.5-2.6c1.5-1.5,2.9-3.8,3.7-6.1l3.4,1
	c-0.1,0.4-0.3,0.8-0.5,1.1H36v3h-3.4c0.8,0.6,1.6,1.2,2.1,1.7L32.5,9c-0.7-0.7-2.2-2-3.2-2.8l1.1-1.1H29.5z M39.7,16.8
	c1.8,1.9,4.5,3.2,8.2,3.8c-0.8,0.7-1.8,2.2-2.2,3.1c-4.3-0.9-7.2-2.8-9.2-5.7c-1.5,2.5-4.3,4.4-9.5,5.7c-0.3-0.9-1.2-2.2-1.9-3
	c4.3-0.9,6.5-2.2,7.7-3.9h-7.6v-3.1H34c0.1-0.5,0.2-1.1,0.2-1.7c-2.3,0.1-4.5,0.2-6.6,0.2c0-0.9-0.4-2.2-0.8-3
	C32.2,9.1,38.2,8.7,42.5,8c-0.6-0.7-1.5-1.5-2.1-2l0.9-0.8h-1.4c-0.6,1.2-1.3,2.3-2.1,3.2c-0.6-0.6-1.9-1.6-2.7-2.1
	c1.4-1.5,2.6-3.9,3.2-6.2l3.3,0.8c-0.1,0.4-0.3,0.9-0.4,1.3h6.5v3h-3.9c0.6,0.5,1.2,1.1,1.6,1.5l-1.3,1.2l1.8,2.8
	c-2.3,0.5-4.9,0.8-7.7,1.1c-0.1,0.7-0.2,1.3-0.3,1.9h9.6v3.1L39.7,16.8L39.7,16.8z"/>
<path class="st0" d="M66.3,12.1c-0.3-0.5-0.7-1.1-1.2-1.8c-12.6,0.5-14.6,0.6-16.1,1.1C48.9,10.7,48.3,9,47.9,8
	c0.7-0.2,1.3-0.6,2.1-1.4c0.8-0.8,3.4-3.7,5-6.6l3.6,1.6c-1.4,2-3.1,4.1-4.9,5.8l8.8-0.2c-0.8-1-1.7-1.9-2.5-2.7l2.8-1.9
	C65,4.7,68,7.8,69.3,9.9L66.3,12.1z M49.6,12.8h17.3V24H63v-1.2h-9.7V24h-3.7V12.8z M53.3,19.3H63v-3.1h-9.7V19.3z"/>
<path class="st0" d="M80.6,16.3l0.6,3.2c-3.5,1.5-7.3,3-10.3,4.1L69.3,20c1.6-0.4,3.9-1.2,6.4-2V9.8h-5.4V6.3h5.4V1h3.8v15.7
	L80.6,16.3z M88.5,19.9c0.8,0,1-1.1,1.1-5.4c0.9,0.7,2.5,1.4,3.4,1.7c-0.3,5.2-1.1,7.3-4.2,7.3h-2.8c-3.1,0-4-1.2-4-5.1V1H86v5.2
	h6.2v3.6H86v8.6c0,1.4,0.1,1.6,0.8,1.6H88.5z"/>
<g>
	<defs>
		<rect id="SVGID_1_" x="101" y="3" width="52" height="18"/>
	</defs>
	<clipPath id="SVGID_00000081628868367734852820000015639127249325079231_">
		<use xlink:href="#SVGID_1_"  style="overflow:visible;"/>
	</clipPath>
	<g style="clip-path:url(#SVGID_00000081628868367734852820000015639127249325079231_);">
		<path class="st2" d="M129.2,3c3-0.1,6,0.6,8.7,2c0.7,0.4,1.5,0.9,1.9,1.6c0.4,0.8-0.2,1.6-0.8,2c-0.7,0.5-1.4,1-2.2,1.3
			c-0.1,0-0.2,0.1-0.3,0.1c-0.1,0-0.2-0.1-0.3-0.2c-0.9-1-1.2-2.4-0.9-3.8c0.1-0.2,0.1-0.6-0.2-0.6c-0.2,0-0.3,0.2-0.3,0.4
			c-0.3,1.6,0.1,3.3,1.2,4.4c-3.7,1.6-8,1.4-11.9,0.4c-2.1-0.6-4.2-1.4-6.4-1.1c-0.8,0.1-1.5,0.4-2,1.1c-0.3,0.4-0.6,0.9-1,0.7
			c-0.1,0-0.2-0.1-0.3-0.3c-0.3-0.5-0.1-1.2,0.3-1.6c0.4-0.4,0.9-0.7,1.3-1.1c0.4-0.4,0.7-1,0.5-1.6c-0.1-0.3-0.4-0.6-0.6-0.8
			c-0.4-0.3-0.9-0.6-1.2-1.1c-0.3-0.4-0.5-1-0.3-1.5c0-0.1,0.1-0.2,0.2-0.3c0.2-0.1,0.5-0.1,0.7,0.1c0.2,0.2,0.3,0.4,0.5,0.6
			c0.5,0.6,1.2,0.9,1.9,1.1c2.1,0.4,4.2-0.4,6.3-1C125.6,3.3,127.4,3,129.2,3z M137.5,6.3c0-0.4-0.2-0.6-0.6-0.6
			c-0.3,0-0.6,0.3-0.6,0.6c0,0.3,0.3,0.6,0.6,0.6C137.2,6.9,137.5,6.6,137.5,6.3z"/>
		<path class="st3" d="M116.1,7.8c3-0.1,6,0.6,8.7,2c0.7,0.4,1.5,0.9,1.9,1.6c0.4,0.8-0.2,1.6-0.8,2c-0.7,0.5-1.4,1-2.2,1.3
			c-0.1,0-0.2,0.1-0.3,0.1c-0.1,0-0.2-0.1-0.3-0.2c-0.9-1-1.2-2.4-0.9-3.8c0.1-0.2,0.1-0.6-0.2-0.6c-0.2,0-0.3,0.2-0.3,0.4
			c-0.3,1.6,0.1,3.3,1.2,4.4c-3.7,1.6-8,1.4-11.9,0.4c-2.1-0.6-4.2-1.4-6.4-1.1c-0.8,0.1-1.5,0.4-2,1.1c-0.3,0.4-0.6,0.9-1,0.7
			c-0.1,0-0.2-0.1-0.3-0.3c-0.3-0.5-0.1-1.2,0.3-1.6c0.4-0.4,0.9-0.7,1.3-1.1c0.4-0.4,0.7-1,0.5-1.6c-0.1-0.3-0.4-0.6-0.6-0.8
			c-0.4-0.3-0.9-0.6-1.2-1.1c-0.3-0.4-0.5-1-0.3-1.5c0-0.1,0.1-0.2,0.2-0.3c0.2-0.1,0.5-0.1,0.7,0.1c0.2,0.2,0.3,0.4,0.5,0.6
			c0.5,0.6,1.2,0.9,1.9,1.1c2.1,0.4,4.2-0.4,6.3-1C112.4,8.1,114.3,7.8,116.1,7.8z M124.4,11.1c0-0.4-0.2-0.6-0.6-0.6
			c-0.3,0-0.6,0.3-0.6,0.6c0,0.3,0.3,0.6,0.6,0.6C124.1,11.7,124.4,11.4,124.4,11.1z"/>
		<path class="st4" d="M129.2,12.6c3-0.1,6,0.6,8.7,2c0.7,0.4,1.5,0.9,1.9,1.6c0.4,0.8-0.2,1.6-0.8,2c-0.7,0.5-1.4,1-2.2,1.3
			c-0.1,0-0.2,0.1-0.3,0.1c-0.1,0-0.2-0.1-0.3-0.2c-0.9-1-1.2-2.4-0.9-3.8c0.1-0.2,0.1-0.6-0.2-0.6c-0.2,0-0.3,0.2-0.3,0.4
			c-0.3,1.6,0.1,3.3,1.2,4.4c-3.7,1.6-8,1.4-11.9,0.4c-2.1-0.6-4.2-1.4-6.4-1.1c-0.8,0.1-1.5,0.4-2,1.1c-0.3,0.4-0.6,0.9-1,0.7
			c-0.1,0-0.2-0.1-0.3-0.3c-0.3-0.5-0.1-1.2,0.3-1.6c0.4-0.4,0.9-0.7,1.3-1.1c0.4-0.4,0.7-1,0.5-1.6c-0.1-0.3-0.4-0.6-0.6-0.8
			c-0.4-0.3-0.9-0.6-1.2-1.1c-0.3-0.4-0.5-1-0.3-1.5c0-0.1,0.1-0.2,0.2-0.3c0.2-0.1,0.5-0.1,0.7,0.1c0.2,0.2,0.3,0.4,0.5,0.6
			c0.5,0.6,1.2,0.9,1.9,1.1c2.1,0.4,4.2-0.4,6.3-1C125.6,12.9,127.4,12.6,129.2,12.6z M137.5,15.9c0-0.4-0.2-0.6-0.6-0.6
			c-0.3,0-0.6,0.3-0.6,0.6c0,0.3,0.3,0.6,0.6,0.6C137.2,16.5,137.5,16.2,137.5,15.9z"/>
		<path class="st0" d="M142.3,7.8c3-0.1,6,0.6,8.7,2c0.7,0.4,1.5,0.9,1.9,1.6c0.4,0.8-0.2,1.6-0.8,2c-0.7,0.5-1.4,1-2.2,1.3
			c-0.1,0-0.2,0.1-0.3,0.1c-0.1,0-0.2-0.1-0.3-0.2c-0.9-1-1.2-2.4-0.9-3.8c0.1-0.2,0.1-0.6-0.2-0.6c-0.2,0-0.3,0.2-0.3,0.4
			c-0.3,1.6,0.1,3.3,1.2,4.4c-3.7,1.6-8,1.4-11.9,0.4c-2.1-0.6-4.2-1.4-6.4-1.1c-0.8,0.1-1.5,0.4-2,1.1c-0.3,0.4-0.6,0.9-1,0.7
			c-0.1,0-0.2-0.1-0.3-0.3c-0.3-0.5-0.1-1.2,0.3-1.6c0.4-0.4,0.9-0.7,1.3-1.1c0.4-0.4,0.7-1,0.5-1.6c-0.1-0.3-0.4-0.6-0.6-0.8
			c-0.4-0.3-0.9-0.6-1.2-1.1c-0.3-0.4-0.5-1-0.3-1.5c0-0.1,0.1-0.2,0.2-0.3c0.2-0.1,0.5-0.1,0.7,0.1c0.2,0.2,0.3,0.4,0.5,0.6
			c0.5,0.6,1.2,0.9,1.9,1.1c2.1,0.4,4.2-0.4,6.3-1C138.7,8.1,140.5,7.8,142.3,7.8z M150.6,11.1c0-0.4-0.2-0.6-0.6-0.6
			c-0.3,0-0.6,0.3-0.6,0.6c0,0.3,0.3,0.6,0.6,0.6C150.4,11.7,150.6,11.4,150.6,11.1z"/>
	</g>
</g>
</svg>
