<svg width="200" height="200" viewBox="0 0 200 200" fill="none" xmlns="http://www.w3.org/2000/svg">
<g clip-path="url(#clip0_297_12159)">
<rect width="200" height="200" fill="#DEDEDE"/>
<g clip-path="url(#clip1_297_12159)">
<path d="M153.627 54.4596C153.627 54.4596 179.695 34.752 196.07 51.1364C212.444 67.5208 197.923 91.3631 169.152 105.661" fill="#E4007F"/>
<path d="M158.957 64.3521C163.166 62.6132 167.762 61.338 172.357 61.338C176.374 61.338 181.703 62.5359 183.48 66.6706C184.484 69.0278 184.021 71.8101 182.862 74.09C179.618 80.3887 172.821 85.0258 166.796 88.3104" fill="#F18E1D"/>
<path d="M43.4073 68.0231C43.4073 68.0231 -7.26134 67.2116 -3.70835 110.143C-0.425704 149.481 39.1978 125.407 39.1978 125.407" fill="#E4007F"/>
<path d="M41.2447 82.9004C36.1083 84.137 30.2767 86.301 26.801 90.513C23.3253 94.6864 21.6646 100.328 22.3211 105.738C22.6687 108.636 23.7887 111.612 26.0672 113.428C29.8133 116.403 35.22 115.708 39.6613 115.94" fill="#F18E1D"/>
<path d="M92.8013 22.4637C83.6872 23.5843 74.7661 26.5984 67.0808 31.3515C40.0086 48.1223 41.1286 81.432 39.97 109.216C38.5411 144.071 35.104 178.772 33.482 213.628C32.5551 233.529 32.2461 253.507 33.2889 273.446C34.2544 291.917 34.795 312.63 42.1327 329.709C54.6454 358.884 71.9083 384.659 103.499 394.976C125.087 402.048 148.568 400.541 171.006 397.063C199.7 392.658 229.244 384.504 250.368 364.604C274.312 342.075 280.028 310.118 278.252 278.624C276.746 251.69 268.211 224.023 249.944 203.658C241.486 194.191 232.217 187.699 220.593 182.598C209.084 177.536 196.649 173.324 187.535 164.243C178.729 155.471 174.327 143.144 172.126 130.894C169.499 116.442 169.422 101.603 166.526 87.1897C162.818 68.5641 152.816 49.4361 139.029 36.3363C126.902 24.7823 109.485 20.4543 92.8013 22.4637Z" fill="#7FBF34"/>
<path d="M96.1613 110.143C96.1613 110.143 145.131 98.7438 158.647 115.901C164.054 122.779 167.028 132.324 163.32 140.825C159.458 149.636 150.653 152.534 141.925 152.805C131.382 153.114 121.032 153.23 110.605 155.239C105.546 156.205 100.487 157.558 95.7751 159.606C90.5615 161.886 86.7382 166.407 81.7949 169.112C70.3249 175.41 50.8222 171.082 48.7367 155.973C45.5699 133.02 77.2378 113.389 96.2385 110.105" fill="black"/>
<path d="M72.0628 85.1803C71.6766 83.2482 70.7884 81.5479 69.707 80.0023C69.4367 79.6158 69.1278 79.1908 68.8188 78.8043C68.6257 78.5725 68.4712 78.3406 68.2781 78.1088C64.7251 73.8581 58.8936 72.2738 53.6028 73.5876C48.5822 74.8242 44.3341 79.5772 42.9824 84.4461C41.2446 90.7448 43.8321 97.0435 49.316 100.444C53.1393 102.84 58.044 103.072 62.2535 101.603C62.3694 101.603 62.4852 101.565 62.6011 101.526C65.961 100.521 68.6257 98.3187 70.5567 95.4206C72.5263 92.4065 72.758 88.5036 72.0628 85.103" fill="white"/>
<path d="M61.7128 86.1077V86.0305C61.7128 85.644 61.5197 84.6393 61.4811 84.2529C61.4811 84.1756 61.4425 84.0597 61.4038 83.9824C61.4038 83.9824 61.4038 83.9824 61.4038 83.9438L60.7473 82.3594C60.7473 82.3594 60.7473 82.3208 60.7473 82.2822C60.7473 82.2435 60.7087 82.2049 60.6701 82.1662C60.6701 82.1662 60.6701 82.1276 60.6315 82.0889C60.5542 81.973 60.477 81.8571 60.3611 81.7798C60.2839 81.6252 60.2453 81.4707 60.1294 81.3161C59.7046 80.5432 59.1639 79.925 58.4301 79.4613C57.8122 78.8816 57.0398 78.4952 56.1902 78.302C55.6109 78.2247 55.0316 78.1474 54.4524 78.0701C53.2552 78.0701 52.1738 78.3793 51.1311 78.9589C50.7063 79.3067 50.2428 79.6545 49.818 80.0022C49.007 80.8137 48.4663 81.7798 48.1188 82.9004C47.9257 83.6733 47.8484 84.4848 47.8098 85.2963C47.8098 85.5281 47.8098 85.7213 47.8098 85.9532C47.8871 86.6487 47.9643 87.3057 48.0802 88.0012C48.0802 88.1172 48.1188 88.1944 48.1574 88.3104C48.1574 88.4263 48.2346 88.5422 48.2733 88.6581C48.505 89.2764 48.7753 89.8947 49.0456 90.513C49.6249 91.479 50.3973 92.2905 51.4014 92.8702C52.1352 93.3339 52.9462 93.6044 53.8344 93.643C54.7227 93.8362 55.5723 93.7976 56.4606 93.5271C57.5805 93.218 58.5074 92.6383 59.357 91.8268C59.3956 91.8268 59.4343 91.7495 59.4729 91.7109C59.4729 91.7109 59.4729 91.6723 59.5115 91.6723C59.8591 91.2472 60.2066 90.7835 60.5542 90.3584C60.5928 90.2811 60.6701 90.2038 60.7087 90.1266L61.3652 88.5422C61.3652 88.5422 61.3652 88.5036 61.3652 88.4649C61.3652 88.4263 61.3652 88.3876 61.4038 88.3104C61.4811 88.0012 61.5197 87.5762 61.5197 87.3057C61.5583 87.0352 61.6356 86.6487 61.6356 86.301C61.6356 86.301 61.6356 86.2237 61.6356 86.185" fill="black"/>
<path d="M122.113 77.1041C122.191 70.8826 118.599 64.7771 113.154 61.763C107.593 58.633 100.023 58.6716 94.6937 62.3813C88.5146 66.7479 85.5023 73.7808 87.0857 81.2774C88.2829 86.8806 92.4538 91.4018 97.6288 93.5657C103.576 96.0775 110.219 94.9955 115.278 91.054C117.827 89.0832 119.565 86.5715 120.453 83.7892C121.418 81.7025 122.036 79.4613 122.036 77.0654" fill="white"/>
<path d="M109.176 79.0362C109.137 78.0701 108.867 77.1814 108.326 76.3699C107.94 75.8675 107.593 75.4038 107.206 74.9014C106.318 74.0127 105.237 73.3944 104.04 73.0466C103.383 72.9693 102.765 72.8534 102.109 72.7761C100.796 72.7761 99.5984 73.1239 98.4785 73.7808C98.3626 73.8195 98.2467 73.8967 98.1695 73.974C97.9764 74.1286 97.4357 74.4377 97.0109 74.8242C96.702 75.056 96.4316 75.2879 96.0454 75.597C95.5434 76.0221 95.1572 76.6404 94.8096 77.1814C94.1145 78.2247 93.7283 79.8863 93.7283 81.1229C93.7283 82.0117 93.96 82.8231 94.2303 83.6346C94.2303 83.7119 94.2303 83.7506 94.2303 83.8278C94.2303 83.9051 94.2689 83.9438 94.3076 84.0211C94.5393 84.6393 94.771 85.2963 95.08 85.8759C95.08 85.9532 95.1572 85.9918 95.1958 86.0691C95.8523 87.1511 96.702 88.0012 97.7833 88.6581C98.5943 89.1991 99.4826 89.4696 100.448 89.5083C101.414 89.7401 102.379 89.7015 103.306 89.3924C104.542 89.0446 105.584 88.4263 106.473 87.5375C106.897 86.9965 107.361 86.4169 107.786 85.8373C107.863 85.76 107.902 85.644 107.94 85.5668C108.713 84.1756 108.983 83.055 109.06 81.5093C109.253 80.6978 109.292 79.8863 109.099 79.0362" fill="black"/>
<path d="M161.969 77.1041C161.814 75.5197 161.621 73.8967 161.158 72.351C160.617 70.4576 159.729 68.9119 158.493 67.4048C158.3 67.173 158.068 66.9798 157.798 66.8252C156.523 65.4727 154.94 64.3907 153.048 63.6565C150.151 62.4972 147.1 62.3813 144.011 63.0769C139.106 64.2361 134.935 68.4868 133.738 72.9693C132.695 76.9109 133.12 81.1229 135.36 84.678C136.712 86.8033 138.643 88.5809 140.844 89.8947C142.273 90.7448 143.972 91.479 145.633 91.7882C148.066 92.2132 150.46 92.2519 152.739 91.595C152.739 91.595 152.777 91.595 152.816 91.595C155.867 90.938 158.648 88.7741 160.231 86.1464C161.853 83.4801 162.239 80.1568 161.892 77.1041" fill="white"/>
<path d="M150.229 73.7808C150.229 73.7808 150.229 73.7035 150.229 73.6649C150.229 73.6263 150.229 73.5876 150.19 73.549C150.113 73.3558 149.611 72.1578 149.533 71.9646C149.533 71.9646 149.533 71.926 149.533 71.8873C149.533 71.8873 149.533 71.8873 149.533 71.8487C149.379 71.6168 149.186 71.4236 149.031 71.1918C148.877 70.9599 148.684 70.7281 148.529 70.5349C148.529 70.4962 148.491 70.4576 148.452 70.4576C148.336 70.3416 147.255 69.5302 147.1 69.4142C147.1 69.4142 147.1 69.4142 147.062 69.3756C147.062 69.3756 147.062 69.3756 147.023 69.3756C146.753 69.2597 146.482 69.1437 146.212 69.0278C145.942 68.9119 145.671 68.796 145.44 68.68C145.44 68.68 145.362 68.68 145.324 68.6414C145.015 68.5641 144.59 68.5641 144.397 68.5255C144.281 68.5255 143.779 68.4095 143.47 68.4095C143.47 68.4095 143.393 68.4095 143.354 68.4095C143.161 68.4095 141.809 68.6027 141.616 68.6414C141.616 68.6414 141.578 68.6414 141.539 68.6414C141.501 68.6414 141.462 68.6414 141.423 68.68C141.153 68.796 140.69 68.9892 140.612 69.0278C140.381 69.1051 140.072 69.2597 139.801 69.3756C139.801 69.3756 139.801 69.3756 139.763 69.3756C139.492 69.5302 139.145 69.8393 138.99 69.9552C138.874 70.0325 138.45 70.3417 138.257 70.5349C138.257 70.5349 138.257 70.5349 138.218 70.5735L137.175 71.8873C137.175 71.8873 137.137 71.9646 137.098 72.0033C137.021 72.1192 136.48 73.433 136.441 73.5876C136.441 73.5876 136.441 73.5876 136.441 73.6263C136.441 73.6263 136.441 73.6649 136.441 73.7035C136.441 73.7035 136.441 73.7808 136.441 73.8195C136.403 73.974 136.287 74.09 136.248 74.2832C136.171 74.8628 136.094 75.4424 136.017 76.0221C136.017 77.22 136.326 78.302 136.905 79.3453C137.523 80.4273 138.527 81.3934 139.608 82.0503C139.608 82.0503 139.685 82.0889 139.724 82.1276C140.265 82.3594 140.767 82.5526 141.269 82.7845C141.269 82.7845 141.307 82.7845 141.346 82.7845C141.346 82.7845 141.423 82.7845 141.462 82.7845C142.08 82.9004 142.698 83.0164 143.316 83.0164C143.354 83.0164 143.393 83.0164 143.432 83.0164H143.509C143.74 83.0164 145.015 82.8231 145.247 82.7845C145.247 82.7845 145.247 82.7845 145.285 82.7845C145.324 82.7845 145.362 82.7845 145.401 82.7845C145.671 82.7072 146.096 82.514 146.251 82.4367C146.405 82.3594 146.83 82.2049 147.1 82.0889C147.1 82.0889 147.178 82.0503 147.216 82.0117C147.68 81.6639 148.22 81.3161 148.645 80.9297C149.07 80.5046 149.379 80.0023 149.726 79.5385C149.726 79.4999 149.765 79.4613 149.804 79.4226C149.804 79.4226 149.804 79.4226 149.804 79.384C149.881 79.1908 150.383 78.0315 150.46 77.7996C150.46 77.761 150.46 77.7223 150.499 77.6837C150.615 77.1041 150.692 76.4472 150.731 75.8289C150.731 75.7902 150.731 75.7516 150.731 75.7129C150.731 75.1333 150.499 73.6649 150.499 73.8581" fill="black"/>
<mask id="mask0_297_12159" style="mask-type:luminance" maskUnits="userSpaceOnUse" x="48" y="106" width="117" height="66">
<path d="M96.1614 110.143C77.1607 113.428 45.4928 133.097 48.6596 156.012C50.745 171.121 70.2478 175.449 81.7178 169.15C86.661 166.445 90.523 161.924 95.698 159.644C100.41 157.558 105.469 156.244 110.528 155.278C120.955 153.268 131.305 153.152 141.848 152.843C150.576 152.573 159.381 149.636 163.243 140.864C166.951 132.401 164.016 122.818 158.57 115.94C152.777 108.559 140.419 106.472 128.215 106.472C112.034 106.472 96.0842 110.182 96.0842 110.182" fill="white"/>
</mask>
<g mask="url(#mask0_297_12159)">
<path d="M103.577 156.94C103.577 156.94 103.46 156.823 103.46 156.862C103.46 156.862 103.499 156.901 103.538 156.94" fill="white"/>
</g>
<mask id="mask1_297_12159" style="mask-type:luminance" maskUnits="userSpaceOnUse" x="48" y="106" width="117" height="66">
<path d="M96.1614 110.143C77.1607 113.428 45.4928 133.097 48.6596 156.012C50.745 171.121 70.2478 175.449 81.7178 169.15C86.661 166.445 90.523 161.924 95.698 159.644C100.41 157.558 105.469 156.244 110.528 155.278C120.955 153.268 131.305 153.152 141.848 152.843C150.576 152.573 159.381 149.636 163.243 140.864C166.951 132.401 164.016 122.818 158.57 115.94C152.777 108.559 140.419 106.472 128.215 106.472C112.034 106.472 96.0842 110.182 96.0842 110.182" fill="white"/>
</mask>
<g mask="url(#mask1_297_12159)">
<path d="M103.615 156.939C103.615 156.939 103.615 156.939 103.654 156.978Z" fill="white"/>
</g>
<mask id="mask2_297_12159" style="mask-type:luminance" maskUnits="userSpaceOnUse" x="48" y="106" width="117" height="66">
<path d="M96.1614 110.143C77.1607 113.428 45.4928 133.097 48.6596 156.012C50.745 171.121 70.2478 175.449 81.7178 169.15C86.661 166.445 90.523 161.924 95.698 159.644C100.41 157.558 105.469 156.244 110.528 155.278C120.955 153.268 131.305 153.152 141.848 152.843C150.576 152.573 159.381 149.636 163.243 140.864C166.951 132.401 164.016 122.818 158.57 115.94C152.777 108.559 140.419 106.472 128.215 106.472C112.034 106.472 96.0842 110.182 96.0842 110.182" fill="white"/>
</mask>
<g mask="url(#mask2_297_12159)">
<path d="M104.426 158.987C104.426 158.987 104.349 158.871 104.31 158.833C104.503 158.137 104.271 157.442 103.654 156.978C103.654 156.978 103.576 156.901 103.538 156.901C103.46 156.823 103.345 156.746 103.267 156.669C103.152 156.553 103.074 156.437 102.997 156.36C102.997 156.36 102.92 156.282 102.92 156.244C102.572 155.78 102.263 155.278 101.954 154.775C101.568 154.196 101.182 153.616 100.719 153.075C100.603 152.959 100.448 152.843 100.332 152.727C100.101 152.457 99.9075 152.186 99.6758 151.916C99.0579 151.22 98.2855 150.563 97.3586 150.331C96.509 150.1 95.698 150.061 94.8483 150.331C94.2691 150.525 93.8829 150.718 93.4194 151.143C92.145 152.225 91.836 153.848 91.6429 155.394C91.4885 156.476 91.4112 157.596 91.3726 158.717C91.3726 159.065 91.4112 159.374 91.4885 159.722C91.3726 161.229 91.2954 162.774 91.4885 164.281C91.5657 165.17 92.1836 165.943 93.1105 165.943C93.9215 165.943 94.8484 165.17 94.7325 164.281C94.6553 163.586 94.6553 162.929 94.6166 162.233C95.389 162.233 96.1614 162.001 96.7407 161.499C97.011 161.229 97.2428 160.919 97.4745 160.572C97.5131 160.572 97.5903 160.572 97.6676 160.494C98.6331 160.147 99.6372 159.837 100.603 159.49C100.68 159.451 100.718 159.374 100.796 159.335C101.105 159.799 101.414 160.301 101.684 160.765C102.109 161.538 103.152 161.808 103.924 161.345C104.696 160.881 104.928 159.876 104.503 159.103" fill="white"/>
</g>
<mask id="mask3_297_12159" style="mask-type:luminance" maskUnits="userSpaceOnUse" x="48" y="106" width="117" height="66">
<path d="M96.1614 110.143C77.1607 113.428 45.4928 133.097 48.6596 156.012C50.745 171.121 70.2478 175.449 81.7178 169.15C86.661 166.445 90.523 161.924 95.698 159.644C100.41 157.558 105.469 156.244 110.528 155.278C120.955 153.268 131.305 153.152 141.848 152.843C150.576 152.573 159.381 149.636 163.243 140.864C166.951 132.401 164.016 122.818 158.57 115.94C152.777 108.559 140.419 106.472 128.215 106.472C112.034 106.472 96.0842 110.182 96.0842 110.182" fill="white"/>
</mask>
<g mask="url(#mask3_297_12159)">
<path d="M125.049 150.1C124.585 148.361 124.238 146.429 123.272 144.883C122.229 143.183 120.144 141.869 118.136 142.564C115.934 143.299 115.278 145.54 115.046 147.626C114.776 149.906 114.583 152.186 114.351 154.466C114.312 155.046 114.699 155.625 115.162 155.896C115.703 156.205 116.243 156.128 116.823 155.896C117.016 155.819 117.209 155.741 117.402 155.664C117.865 155.471 118.136 154.93 118.174 154.389C118.367 154.621 118.638 154.814 118.947 154.891C118.947 154.891 118.985 154.891 119.024 154.891C119.063 154.891 119.101 154.93 119.14 154.969C119.565 155.046 120.028 155.046 120.414 154.814C120.492 154.775 120.569 154.659 120.646 154.582C120.878 154.698 121.071 154.737 121.303 154.737C121.65 154.737 121.959 154.582 122.229 154.389C122.461 154.969 123.04 155.355 123.697 155.394C124.971 155.471 125.782 154.273 125.744 153.114C125.744 152.148 125.28 151.104 125.049 150.138" fill="white"/>
</g>
<mask id="mask4_297_12159" style="mask-type:luminance" maskUnits="userSpaceOnUse" x="48" y="106" width="117" height="66">
<path d="M96.1614 110.143C77.1607 113.428 45.4928 133.097 48.6596 156.012C50.745 171.121 70.2478 175.449 81.7178 169.15C86.661 166.445 90.523 161.924 95.698 159.644C100.41 157.558 105.469 156.244 110.528 155.278C120.955 153.268 131.305 153.152 141.848 152.843C150.576 152.573 159.381 149.636 163.243 140.864C166.951 132.401 164.016 122.818 158.57 115.94C152.777 108.559 140.419 106.472 128.215 106.472C112.034 106.472 96.0842 110.182 96.0842 110.182" fill="white"/>
</mask>
<g mask="url(#mask4_297_12159)">
<path d="M111.069 104.038C111.069 103.149 110.76 102.338 110.296 101.603C109.91 100.831 109.331 100.251 108.597 99.7485C107.979 99.1689 107.207 98.7825 106.357 98.5506C104.696 98.1642 102.804 98.2415 101.298 99.2075L101.221 99.2848C100.217 99.8644 99.4441 100.637 98.8648 101.642L98.3628 102.338C97.9766 102.956 97.7449 103.651 97.6677 104.347C97.5904 104.579 97.4359 104.772 97.3587 105.043C97.1656 106.395 96.9725 107.786 96.7022 109.139C96.2774 109.37 95.8525 109.564 95.505 109.834C95.505 109.834 95.4663 109.834 95.4277 109.834C94.694 109.641 93.8829 110.027 93.5354 110.646C93.3037 110.066 92.8402 109.641 92.1837 109.564C92.0678 109.023 91.952 108.52 91.8361 107.979C91.6817 107.091 90.6389 106.627 89.8279 106.82C88.9011 107.091 88.5149 107.979 88.6693 108.829C89.2486 111.844 90.1755 114.742 91.4499 117.563C92.6471 120.152 94.1919 122.663 96.5863 124.286C98.9807 125.948 102.07 126.296 104.735 125.098C106.009 124.518 107.207 123.591 107.786 122.316C108.442 120.886 108.674 119.186 108.983 117.679C109.369 115.901 109.794 114.162 110.18 112.385C110.528 110.762 110.837 109.139 110.721 107.477C110.76 107.168 110.837 106.859 110.914 106.588C111.184 105.699 111.223 104.849 111.03 103.961" fill="white"/>
</g>
<mask id="mask5_297_12159" style="mask-type:luminance" maskUnits="userSpaceOnUse" x="48" y="106" width="117" height="66">
<path d="M96.1614 110.143C77.1607 113.428 45.4928 133.097 48.6596 156.012C50.745 171.121 70.2478 175.449 81.7178 169.15C86.661 166.445 90.523 161.924 95.698 159.644C100.41 157.558 105.469 156.244 110.528 155.278C120.955 153.268 131.305 153.152 141.848 152.843C150.576 152.573 159.381 149.636 163.243 140.864C166.951 132.401 164.016 122.818 158.57 115.94C152.777 108.559 140.419 106.472 128.215 106.472C112.034 106.472 96.0842 110.182 96.0842 110.182" fill="white"/>
</mask>
<g mask="url(#mask5_297_12159)">
<path d="M139.106 104.772C138.295 104.54 137.33 105.004 137.137 105.854C136.596 105.699 135.978 105.777 135.592 106.24C135.515 106.318 135.476 106.434 135.399 106.511C135.167 106.395 134.935 106.318 134.703 106.318C132.966 106.202 131.228 106.125 129.49 106.009C129.258 106.009 129.026 106.086 128.795 106.202C128.64 106.009 128.409 105.893 128.215 105.815C128.061 105.39 127.675 105.12 127.25 104.927C127.095 104.231 126.362 103.651 125.667 103.651C124.701 103.651 124.122 104.386 124.045 105.274C123.774 107.632 124.199 110.105 124.778 112.423C125.28 114.549 126.207 116.674 127.829 118.181C129.606 119.804 131.846 120.384 134.086 119.302C136.171 118.297 137.214 116.133 138.063 114.123C139.067 111.766 139.801 109.293 140.342 106.781C140.535 105.931 140.11 105.004 139.183 104.772" fill="white"/>
</g>
<mask id="mask6_297_12159" style="mask-type:luminance" maskUnits="userSpaceOnUse" x="48" y="106" width="117" height="66">
<path d="M96.1614 110.143C77.1607 113.428 45.4928 133.097 48.6596 156.012C50.745 171.121 70.2478 175.449 81.7178 169.15C86.661 166.445 90.523 161.924 95.698 159.644C100.41 157.558 105.469 156.244 110.528 155.278C120.955 153.268 131.305 153.152 141.848 152.843C150.576 152.573 159.381 149.636 163.243 140.864C166.951 132.401 164.016 122.818 158.57 115.94C152.777 108.559 140.419 106.472 128.215 106.472C112.034 106.472 96.0842 110.182 96.0842 110.182" fill="white"/>
</mask>
<g mask="url(#mask6_297_12159)">
<path d="M77.6242 125.175C76.5042 122.316 75.5001 119.418 72.9513 117.524C72.2561 116.983 71.1361 117.408 70.7113 118.104C70.5569 118.374 70.5182 118.683 70.5182 118.954C70.0162 119.302 69.8231 119.92 69.8617 120.538C69.6686 120.654 69.4755 120.731 69.321 120.886C69.0121 121.234 68.819 121.62 68.5873 122.045C68.5873 122.084 68.3556 122.393 68.4714 122.238C68.4714 122.238 68.1238 122.548 68.2783 122.47C67.7376 122.895 67.2356 123.011 66.6177 123.243C65.1888 123.784 63.8371 124.364 62.9488 125.6C62.6785 125.523 62.4082 125.484 62.0992 125.6C61.8289 125.678 61.5585 125.871 61.3654 126.103C61.2882 126.103 61.2496 126.103 61.1724 126.18C60.902 126.373 60.6703 126.605 60.5544 126.914C59.9752 126.76 59.3572 126.875 58.9324 127.301C58.3145 127.957 58.3145 128.962 58.9324 129.619C59.3959 130.121 59.9365 130.624 60.4386 131.088C60.7862 131.86 61.1724 132.595 61.7903 133.174C62.833 134.179 64.1074 134.797 65.3819 135.415C65.8453 135.647 66.3474 135.918 66.7722 136.188C66.9266 136.266 67.0811 136.382 67.2356 136.497C67.7376 136.845 68.2397 137.309 68.7417 137.657C69.9389 138.468 71.3292 138.623 72.7582 138.545C75.7319 138.391 78.0876 136.729 78.86 133.792C79.671 130.856 78.5897 127.88 77.547 125.175" fill="white"/>
</g>
</g>
</g>
<defs>
<clipPath id="clip0_297_12159">
<rect width="200" height="200" fill="white"/>
</clipPath>
<clipPath id="clip1_297_12159">
<rect width="367" height="378" fill="white" transform="translate(-28 22)"/>
</clipPath>
</defs>
</svg>
